<svg xmlns="http://www.w3.org/2000/svg" viewBox="0 0 80 12" fill="none"><path d="M5.999925 9.91475L2.808575 11.9387C2.7148 11.987325 2.62775 12.007025 2.547475 11.9978C2.4677525 11.98795 2.390095 11.959 2.314485 11.911C2.2382925 11.86175 2.1808525 11.7922 2.14217 11.702325C2.1034875 11.61245 2.09997 11.514275 2.13162 11.407775L2.9809 7.612875L0.171972 5.05525C0.09284775 4.987525 0.04068425 4.9066 0.015481575 4.812425C-0.009721025 4.718225 -0.00415295 4.62805 0.03218575 4.541875C0.06852425 4.4557 0.116878 4.3849 0.177247 4.3295C0.23820225 4.27595 0.3202575 4.23965 0.4234125 4.22055L4.12995 3.880775L5.5753 0.2871575C5.61515 0.18559025 5.672575 0.11233875 5.7476 0.06740325C5.822625 0.022467725 5.906725 0 5.999925 0C6.093125 0 6.177525 0.022467725 6.253125 0.06740325C6.328725 0.11233875 6.385875 0.18559025 6.42455 0.2871575L7.8699 3.880775L11.57555 4.22055C11.6793 4.239025 11.76165 4.27565 11.8226 4.330425C11.88355 4.3846 11.9322 4.455075 11.96855 4.541875C12.0043 4.62805 12.009575 4.718225 11.984375 4.812425C11.959175 4.9066 11.907 4.987525 11.827875 5.05525L9.01895 7.612875L9.868225 11.407775C9.90105 11.51305 9.897825 11.610925 9.85855 11.7014C9.8193 11.791875 9.76155 11.86145 9.685375 11.910075C9.61035 11.959325 9.532675 11.98855 9.4524 11.9978C9.372675 12.007025 9.285925 11.987325 9.19215 11.9387L5.999925 9.91475Z" fill="#9E445A"/><path d="M22.999925 9.91475L19.808575 11.9387C19.7148 11.987325 19.62775 12.007025 19.547475 11.9978C19.4677525 11.98795 19.390095 11.959 19.314485 11.911C19.2382925 11.86175 19.1808525 11.7922 19.14217 11.702325C19.1034875 11.61245 19.09997 11.514275 19.13162 11.407775L19.9809 7.612875L17.171972 5.05525C17.09284775 4.987525 17.04068425 4.9066 17.015481575 4.812425C16.990278975 4.718225 16.99584705 4.62805 17.03218575 4.541875C17.06852425 4.4557 17.116878 4.3849 17.177247 4.3295C17.23820225 4.27595 17.3202575 4.23965 17.4234125 4.22055L21.12995 3.880775L22.5753 0.2871575C22.61515 0.18559025 22.672575 0.11233875 22.7476 0.06740325C22.822625 0.022467725 22.906725 0 22.999925 0C23.093125 0 23.177525 0.022467725 23.253125 0.06740325C23.328725 0.11233875 23.385875 0.18559025 23.42455 0.2871575L24.8699 3.880775L28.57555 4.22055C28.6793 4.239025 28.76165 4.27565 28.8226 4.330425C28.88355 4.3846 28.9322 4.455075 28.96855 4.541875C29.0043 4.62805 29.009575 4.718225 28.984375 4.812425C28.959175 4.9066 28.907 4.987525 28.827875 5.05525L26.01895 7.612875L26.868225 11.407775C26.90105 11.51305 26.897825 11.610925 26.85855 11.7014C26.8193 11.791875 26.76155 11.86145 26.685375 11.910075C26.61035 11.959325 26.532675 11.98855 26.4524 11.9978C26.372675 12.007025 26.285925 11.987325 26.19215 11.9387L22.999925 9.91475Z" fill="#9E445A"/><path d="M39.999925 9.91475L36.808575 11.9387C36.7148 11.987325 36.62775 12.007025 36.547475 11.9978C36.4677525 11.98795 36.390095 11.959 36.314485 11.911C36.2382925 11.86175 36.1808525 11.7922 36.14217 11.702325C36.1034875 11.61245 36.09997 11.514275 36.13162 11.407775L36.9809 7.612875L34.171972 5.05525C34.09284775 4.987525 34.04068425 4.9066 34.015481575 4.812425C33.990278975 4.718225 33.99584705 4.62805 34.03218575 4.541875C34.06852425 4.4557 34.116878 4.3849 34.177247 4.3295C34.23820225 4.27595 34.3202575 4.23965 34.4234125 4.22055L38.12995 3.880775L39.5753 0.2871575C39.61515 0.18559025 39.672575 0.11233875 39.7476 0.06740325C39.822625 0.022467725 39.906725 0 39.999925 0C40.093125 0 40.177525 0.022467725 40.253125 0.06740325C40.328725 0.11233875 40.385875 0.18559025 40.42455 0.2871575L41.8699 3.880775L45.57555 4.22055C45.6793 4.239025 45.76165 4.27565 45.8226 4.330425C45.88355 4.3846 45.9322 4.455075 45.96855 4.541875C46.0043 4.62805 46.009575 4.718225 45.984375 4.812425C45.959175 4.9066 45.907 4.987525 45.827875 5.05525L43.01895 7.612875L43.868225 11.407775C43.90105 11.51305 43.897825 11.610925 43.85855 11.7014C43.8193 11.791875 43.76155 11.86145 43.685375 11.910075C43.61035 11.959325 43.532675 11.98855 43.4524 11.9978C43.372675 12.007025 43.285925 11.987325 43.19215 11.9387L39.999925 9.91475Z" fill="#9E445A"/><path d="M56.999925 9.91475L53.808575 11.9387C53.7148 11.987325 53.62775 12.007025 53.547475 11.9978C53.4677525 11.98795 53.390095 11.959 53.314485 11.911C53.2382925 11.86175 53.1808525 11.7922 53.14217 11.702325C53.1034875 11.61245 53.09997 11.514275 53.13162 11.407775L53.9809 7.612875L51.171972 5.05525C51.09284775 4.987525 51.04068425 4.9066 51.015481575 4.812425C50.990278975 4.718225 50.99584705 4.62805 51.03218575 4.541875C51.06852425 4.4557 51.116878 4.3849 51.177247 4.3295C51.23820225 4.27595 51.3202575 4.23965 51.4234125 4.22055L55.12995 3.880775L56.5753 0.2871575C56.61515 0.18559025 56.672575 0.11233875 56.7476 0.06740325C56.822625 0.022467725 56.906725 0 56.999925 0C57.093125 0 57.177525 0.022467725 57.253125 0.06740325C57.328725 0.11233875 57.385875 0.18559025 57.42455 0.2871575L58.8699 3.880775L62.57555 4.22055C62.6793 4.239025 62.76165 4.27565 62.8226 4.330425C62.88355 4.3846 62.9322 4.455075 62.96855 4.541875C63.0043 4.62805 63.009575 4.718225 62.984375 4.812425C62.959175 4.9066 62.907 4.987525 62.827875 5.05525L60.01895 7.612875L60.868225 11.407775C60.90105 11.51305 60.897825 11.610925 60.85855 11.7014C60.8193 11.791875 60.76155 11.86145 60.685375 11.910075C60.61035 11.959325 60.532675 11.98855 60.4524 11.9978C60.372675 12.007025 60.285925 11.987325 60.19215 11.9387L56.999925 9.91475Z" fill="#9E445A"/><path d="M73.999925 9.91475L70.808575 11.9387C70.7148 11.987325 70.62775 12.007025 70.547475 11.9978C70.4677525 11.98795 70.390095 11.959 70.314485 11.911C70.2382925 11.86175 70.1808525 11.7922 70.14217 11.702325C70.1034875 11.61245 70.09997 11.514275 70.13162 11.407775L70.9809 7.612875L68.171972 5.05525C68.09284775 4.987525 68.04068425 4.9066 68.015481575 4.812425C67.990278975 4.718225 67.99584705 4.62805 68.03218575 4.541875C68.06852425 4.4557 68.116878 4.3849 68.177247 4.3295C68.23820225 4.27595 68.3202575 4.23965 68.4234125 4.22055L72.12995 3.880775L73.5753 0.2871575C73.61515 0.18559025 73.672575 0.11233875 73.7476 0.06740325C73.822625 0.022467725 73.906725 0 73.999925 0C74.093125 0 74.177525 0.022467725 74.253125 0.06740325C74.328725 0.11233875 74.385875 0.18559025 74.42455 0.2871575L75.8699 3.880775L79.57555 4.22055C79.6793 4.239025 79.76165 4.27565 79.8226 4.330425C79.88355 4.3846 79.9322 4.455075 79.96855 4.541875C80.0043 4.62805 80.009575 4.718225 79.984375 4.812425C79.959175 4.9066 79.907 4.987525 79.827875 5.05525L77.01895 7.612875L77.868225 11.407775C77.90105 11.51305 77.897825 11.610925 77.85855 11.7014C77.8193 11.791875 77.76155 11.86145 77.685375 11.910075C77.61035 11.959325 77.532675 11.98855 77.4524 11.9978C77.372675 12.007025 77.285925 11.987325 77.19215 11.9387L73.999925 9.91475Z" fill="#9E445A"/></svg>
