<?xml version="1.0" encoding="UTF-8"?> <svg xmlns="http://www.w3.org/2000/svg" width="278" height="136" viewBox="0 0 278 136" fill="none"><path d="M93.6189 0C93.1186 4.77193 92.7434 9.41828 92.4932 13.9391C92.3681 18.3343 92.3056 21.7248 92.3056 24.1108C92.3056 27.1246 92.3681 29.9501 92.4932 32.5873C92.6183 35.2244 92.7434 37.5476 92.8684 39.5568H88.5533C87.6778 30.7664 86.4896 23.8596 84.9887 18.8366C83.4878 13.6879 80.8612 9.98337 77.1089 7.72298C73.3567 5.46259 67.5407 4.3324 59.6609 4.3324H47.8413C43.5888 4.3324 40.3368 4.70913 38.0854 5.4626C35.9592 6.09049 34.5208 7.53462 33.7703 9.79501C33.0199 11.9298 32.6447 15.3204 32.6447 19.9667V113.396C32.6447 117.917 33.0824 121.307 33.958 123.568C34.9586 125.828 36.8347 127.335 39.5863 128.089C42.338 128.842 46.3404 129.344 51.5936 129.596V133.363C48.3416 133.112 44.2141 132.986 39.2111 132.986C34.2081 132.861 29.1426 132.798 24.0145 132.798C19.1365 132.798 14.5713 132.861 10.3187 132.986C6.06615 132.986 2.62658 133.112 0 133.363V129.596C4.25256 129.344 7.44198 128.842 9.56826 128.089C11.8196 127.335 13.3205 125.828 14.071 123.568C14.8214 121.307 15.1967 117.917 15.1967 113.396V19.9667C15.1967 15.3204 14.8214 11.9298 14.071 9.79501C13.3205 7.53462 11.8196 6.0277 9.56826 5.27424C7.44198 4.39519 4.25256 3.89288 0 3.76731V0C4.62779 0.125575 9.50573 0.251151 14.6338 0.376726C19.7619 0.376726 24.8275 0.439514 29.8305 0.56509C34.8335 0.56509 39.4613 0.56509 43.7138 0.56509C48.0915 0.56509 51.6561 0.56509 54.4078 0.56509C60.1612 0.56509 66.6652 0.56509 73.9195 0.56509C81.299 0.439514 87.8654 0.251151 93.6189 0ZM64.5389 66.3047C64.5389 66.3047 64.5389 66.9326 64.5389 68.1884C64.5389 69.4441 64.5389 70.072 64.5389 70.072H27.0163C27.0163 70.072 27.0163 69.4441 27.0163 68.1884C27.0163 66.9326 27.0163 66.3047 27.0163 66.3047H64.5389ZM68.1035 41.4404C67.6032 48.5983 67.3531 54.0609 67.3531 57.8282C67.4781 61.5956 67.5407 65.0489 67.5407 68.1884C67.5407 71.3278 67.6032 74.7812 67.7283 78.5485C67.8534 82.3158 68.1661 87.7784 68.6664 94.9363H64.3513C63.851 90.9178 63.2256 87.0249 62.4751 83.2576C61.8498 79.3647 60.3489 76.2253 57.9724 73.8393C55.7211 71.3278 51.8437 70.072 46.3404 70.072V66.3047C50.4679 66.3047 53.5948 65.4885 55.7211 63.8559C57.9724 62.0979 59.5984 59.9003 60.599 57.2632C61.5996 54.626 62.2875 51.9261 62.6628 49.1634C63.038 46.2752 63.4132 43.7008 63.7884 41.4404H68.1035Z" fill="#FAF9F6"></path><path d="M145.761 33.7174C153.765 33.7174 160.957 35.4755 167.336 38.9917C173.715 42.5078 178.781 48.0332 182.533 55.5679C186.41 63.1025 188.349 72.8975 188.349 84.9529C188.349 97.0083 186.41 106.803 182.533 114.338C178.781 121.747 173.715 127.21 167.336 130.726C160.957 134.242 153.765 136 145.761 136C137.881 136 130.689 134.242 124.185 130.726C117.806 127.21 112.678 121.747 108.801 114.338C105.049 106.803 103.173 97.0083 103.173 84.9529C103.173 72.8975 105.049 63.1025 108.801 55.5679C112.678 48.0332 117.806 42.5078 124.185 38.9917C130.689 35.4755 137.881 33.7174 145.761 33.7174ZM145.761 37.4848C138.631 37.4848 132.753 41.1893 128.125 48.5983C123.622 56.0074 121.371 68.1256 121.371 84.9529C121.371 101.78 123.622 113.898 128.125 121.307C132.753 128.591 138.631 132.233 145.761 132.233C152.89 132.233 158.706 128.591 163.209 121.307C167.836 113.898 170.15 101.78 170.15 84.9529C170.15 68.1256 167.836 56.0074 163.209 48.5983C158.706 41.1893 152.89 37.4848 145.761 37.4848Z" fill="#FAF9F6"></path><path d="M260.927 33.7174C264.304 33.7174 267.243 34.4081 269.745 35.7895C272.372 37.1708 274.373 38.9917 275.749 41.2521C277.25 43.3869 278 45.8356 278 48.5983C278 51.7378 276.999 54.5005 274.998 56.8864C273.122 59.2724 270.558 60.4654 267.306 60.4654C264.679 60.4654 262.366 59.6491 260.364 58.0166C258.363 56.2585 257.363 53.8098 257.363 50.6704C257.363 48.2844 257.988 46.2752 259.239 44.6427C260.615 42.8846 262.115 41.5032 263.741 40.4986C262.866 39.2428 261.553 38.615 259.802 38.615C255.924 38.615 252.36 39.8079 249.108 42.1939C245.856 44.4543 243.104 47.4053 240.853 51.0471C238.601 54.6888 236.85 58.5817 235.599 62.7258C234.349 66.7442 233.723 70.5115 233.723 74.0277V113.961C233.723 120.114 235.474 124.259 238.976 126.393C242.604 128.403 247.482 129.407 253.61 129.407V133.363C250.734 133.237 246.669 133.112 241.415 132.986C236.162 132.735 230.596 132.609 224.718 132.609C220.465 132.609 216.213 132.735 211.96 132.986C207.833 133.112 204.706 133.237 202.58 133.363V129.407C207.708 129.407 211.335 128.465 213.461 126.582C215.712 124.698 216.838 121.119 216.838 115.845V56.8864C216.838 51.2355 215.838 47.0914 213.836 44.4543C211.835 41.6916 208.083 40.3102 202.58 40.3102V36.3546C206.582 36.7313 210.459 36.9197 214.212 36.9197C217.839 36.9197 221.278 36.7313 224.53 36.3546C227.907 35.8523 230.972 35.1616 233.723 34.2825V57.8282C235.099 54.1865 237.038 50.5448 239.539 46.903C242.166 43.1357 245.293 39.9963 248.92 37.4848C252.547 34.9732 256.55 33.7174 260.927 33.7174Z" fill="#FAF9F6"></path></svg> 