<?xml version="1.0" encoding="UTF-8"?> <svg xmlns="http://www.w3.org/2000/svg" width="24" height="19" viewBox="0 0 24 19" fill="none"><path d="M11.6667 0C14.9182 0 17.8068 1.4665 19.8637 3.28183C20.8962 4.193 21.7467 5.21617 22.3463 6.23467C22.9355 7.2345 23.3333 8.31833 23.3333 9.33333C23.3333 10.3483 22.9367 11.4322 22.3463 12.432C21.7467 13.4505 20.8962 14.4737 19.8637 15.3848C17.8068 17.2002 14.917 18.6667 11.6667 18.6667C8.41517 18.6667 5.5265 17.2002 3.46967 15.3848C2.43717 14.4737 1.58667 13.4505 0.987 12.432C0.396667 11.4322 0 10.3483 0 9.33333C0 8.31833 0.396667 7.2345 0.987 6.23467C1.58667 5.21617 2.43717 4.193 3.46967 3.28183C5.5265 1.4665 8.41633 0 11.6667 0ZM11.6667 2.33333C9.11867 2.33333 6.75733 3.49183 5.01433 5.03067C4.14633 5.796 3.46033 6.6325 2.99717 7.41883C2.5235 8.22383 2.33333 8.89 2.33333 9.33333C2.33333 9.77667 2.5235 10.4428 2.99717 11.2478C3.46033 12.0342 4.14633 12.8695 5.01433 13.636C6.75733 15.1748 9.11867 16.3333 11.6667 16.3333C14.2147 16.3333 16.576 15.1748 18.319 13.636C19.187 12.8695 19.873 12.0342 20.3362 11.2478C20.8098 10.4428 21 9.77667 21 9.33333C21 8.89 20.8098 8.22383 20.3362 7.41883C19.873 6.6325 19.187 5.79717 18.319 5.03067C16.576 3.49183 14.2147 2.33333 11.6667 2.33333ZM11.6667 5.83333C11.7693 5.83333 11.8708 5.83761 11.9712 5.84617C11.7179 6.2905 11.6176 6.80574 11.6857 7.31264C11.7539 7.81954 11.9867 8.29001 12.3483 8.65166C12.71 9.01332 13.1805 9.24613 13.6874 9.31427C14.1943 9.38242 14.7095 9.28213 15.1538 9.02883C15.2152 9.73136 15.0629 10.436 14.7169 11.0505C14.3709 11.665 13.8474 12.1607 13.2148 12.4725C12.5823 12.7844 11.8704 12.8979 11.1723 12.7982C10.4741 12.6985 9.82242 12.3902 9.3025 11.9138C8.78257 11.4373 8.4187 10.8149 8.25855 10.1282C8.0984 9.44139 8.14945 8.72225 8.40501 8.06498C8.66057 7.40771 9.10871 6.84297 9.69072 6.44475C10.2727 6.04654 10.9615 5.83342 11.6667 5.83333Z" fill="#FAF9F6"></path></svg> 