<?xml version="1.0" encoding="UTF-8"?>
<svg xmlns="http://www.w3.org/2000/svg" viewBox="0 0 46 52" fill="none">
  <path d="M37.384 12.322275C39.515 11.09005 41.236 10.6793 42.5475 11.09005C43.94075 11.41865 44.92425 12.075825 45.498 13.0616C46.07175 13.96525 46.15375 15.07425 45.74375 16.388625C45.334 17.703 44.06375 18.9763 41.93275 20.208525C39.88375 21.3586 37.343 22.303325 34.3105 23.04265C31.36 23.69985 27.58975 24.7267 23 26.12325L22.87705 25.7535C26.1555 22.6319 28.901 19.921 31.114 17.62085C33.327 15.23855 35.417 13.47235 37.384 12.322275ZM23.12295 25.7535C27.46675 27.068 31.196 28.09475 34.3105 28.834C37.425 29.5735 40.00675 30.51825 42.05575 31.66825C44.18675 32.9005 45.416 34.21475 45.74375 35.61125C46.15375 36.92575 46.03075 38.07575 45.375 39.0615C44.88325 39.96525 43.98175 40.58125 42.6705 40.91C41.359 41.2385 39.63775 40.78675 37.507 39.5545C35.458 38.4045 33.368 36.7205 31.237 34.50225C29.106 32.20225 26.3195 29.40925 22.87705 26.12325L23.12295 25.7535ZM23.245875 26C24.31135 30.35375 25.295 34.09175 26.1965 37.21325C27.098 40.335 27.58975 43.04575 27.67175 45.346C27.58975 47.8105 27.057 49.5355 26.0735 50.52125C25.09 51.507 24.0245 52 22.87705 52C21.811575 52 20.82805 51.54825 19.9265 50.6445C19.02495 49.65875 18.574175 47.8925 18.574175 45.346C18.574175 42.96375 19.02495 40.29375 19.9265 37.3365C20.82805 34.37925 21.811575 30.60025 22.87705 26H23.245875ZM22.87705 25.87675L23.12295 26.2465C19.84455 29.286 17.098875 31.99675 14.885975 34.37925C12.67305 36.7615 10.583075 38.52775 8.616025 39.67775C6.485075 40.91 4.72295 41.36175 3.329625 41.03325C2.0182625 40.6225 1.0757225 39.92425 0.502005 38.9385C-0.071715 38.03475 -0.15367475 36.96675 0.256125 35.7345C0.665925 34.42025 1.9363025 33.10575 4.06725 31.7915C6.11625 30.6415 8.616025 29.69675 11.5666 28.95725C14.5991 28.218 18.369275 27.19125 22.87705 25.87675ZM8.4931 12.4455C10.5421 13.595575 12.632075 15.3207 14.763025 17.62085C16.893975 19.838875 19.63965 22.590825 23 25.87675L22.87705 26.2465C18.61515 24.932075 14.885975 23.905225 11.689525 23.165875C8.57505 22.3444 5.993325 21.399675 3.944325 20.33175C1.8953225 19.099525 0.665925 17.826225 0.256125 16.51185C-0.07171475 15.115325 0.051225 13.924175 0.624945 12.9384C1.1167025 12.03475 2.0182625 11.41865 3.329625 11.09005C4.640975 10.76145 6.36215 11.213275 8.4931 12.4455ZM23 0C24.14745 0 25.172 0.4928925 26.0735 1.478675C26.975 2.464455 27.42575 4.189575 27.42575 6.654025C27.42575 8.9542 26.975 11.624025 26.0735 14.6635C25.254 17.62085 24.270375 21.399675 23.12295 26H22.754125C21.68865 21.646125 20.705125 17.908375 19.803575 14.786725C18.902 11.6651 18.451225 8.9542 18.451225 6.654025C18.451225 4.189575 18.942975 2.464455 19.9265 1.478675C20.910025 0.4928925 21.934525 0 23 0Z" fill="#9E445A"/>
</svg>
