<svg xmlns="http://www.w3.org/2000/svg" viewBox="0 0 75 129" fill="none"><path d="M49.82425 0L14.2355 129H11.335675L46.9245 0H49.82425ZM63.5325 0L27.94375 129H25.044L60.63275 0H63.5325ZM46.7925 18.1821C41.52025 18.1821 37.1265 19.5535 33.6115 22.2963C30.09675 25.039 28.33925 29.286 28.33925 35.037C28.33925 38.39925 29.13 41.54 30.71175 44.46C32.38125 47.29125 34.4465 50.034 36.90675 52.68825C39.45525 55.254 42.13525 57.86425 44.94725 60.5185C47.847 63.08425 50.52725 65.73875 52.98775 68.4815C55.536 71.22425 57.601 74.144 59.18275 77.24075C60.8525 80.249 61.68725 83.611 61.68725 87.32725C61.68725 90.95475 61.028 94.18425 59.71 97.0155C58.392 99.84675 56.5905 102.324 54.30575 104.4475C52.109 106.4825 49.56075 108.1635 46.66075 109.49075C43.761 110.818 40.72925 111.79125 37.566 112.4105C34.49025 113.02975 31.41475 113.3395 28.33925 113.3395C24.297 113.3395 20.913875 112.897 18.1898 112.01225C15.465725 111.216 13.22495 110.1985 11.467475 108.96C9.710025 107.72125 8.172225 106.61525 6.854125 105.642C5.09665 104.22625 3.51495 102.324 2.1089625 99.93525C0.7029875 97.45775 0 94.715 0 91.70675C0 88.964 0.7029875 86.53075 2.1089625 84.4075C3.51495 82.284 5.44815 81.22225 7.9086 81.22225C10.2812 81.22225 11.994725 82.107 13.0492 83.8765C14.1037 85.646 14.630925 87.63675 14.630925 89.84875C14.630925 91.79525 14.3673 93.609 13.840075 95.29C13.312825 96.97125 12.653775 98.5195 11.862925 99.93525C11.07205 101.35075 10.2812 102.678 9.490325 103.91675C11.511425 105.86325 14.147625 107.5 17.39895 108.82725C20.650275 110.06575 24.428825 110.68525 28.7345 110.68525C32.601 110.68525 35.98425 110.11 38.884 108.96C41.78375 107.80975 44.0245 105.996 45.60625 103.5185C47.276 101.04125 48.11075 97.90025 48.11075 94.09575C48.11075 90.37975 47.36375 87.06175 45.87 84.142C44.464 81.22225 42.57475 78.52375 40.202 76.04625C37.9175 73.4805 35.457 71.003 32.82075 68.61425C30.2725 66.22525 27.812 63.748 25.43925 61.182C23.15465 58.52775 21.265375 55.608 19.771525 52.42275C18.36555 49.23775 17.662575 45.61 17.662575 41.54C17.662575 37.29325 18.497375 33.57725 20.16695 30.392C21.83655 27.11825 24.0334 24.41975 26.7575 22.2963C29.5695 20.08435 32.689 18.447525 36.116 17.3858C39.543 16.2356 43.058 15.6605 46.66075 15.6605C50.703 15.6605 54.086 16.102875 56.81025 16.98765C59.53425 17.78395 61.775 18.80145 63.5325 20.040125C65.37775 21.190325 66.91575 22.2963 68.14575 23.358025C69.63975 24.508225 71.1335 26.36625 72.6275 28.932C74.20925 31.4095 75 34.1965 75 37.29325C75 40.036 74.297 42.46925 72.891 44.5925C71.573 46.716 69.63975 47.77775 67.0915 47.77775C64.71875 47.77775 63.00525 46.893 61.95075 45.1235C60.89625 43.354 60.369 41.36325 60.369 39.15125C60.369 37.20475 60.63275 35.391 61.16 33.71C61.68725 32.02875 62.34625 30.4805 63.137 29.06475C63.928 27.64925 64.71875 26.322 65.50975 25.08325C63.5765 23.136825 60.98425 21.5 57.73275 20.17285C54.5695 18.845675 50.92275 18.1821 46.7925 18.1821Z" fill="#313131" fill-opacity="0.2"/></svg>
