<?xml version="1.0" encoding="UTF-8"?> <svg xmlns="http://www.w3.org/2000/svg" width="8" height="10" viewBox="0 0 8 10" fill="none"><path d="M7.11203 0.000225902L7.28003 0.0982263C7.06537 0.564893 6.79937 0.938226 6.48203 1.21823C6.1647 1.49823 5.79137 1.63823 5.36203 1.63823C5.1847 1.63823 5.0027 1.59156 4.81603 1.49823C4.6387 1.40489 4.46137 1.31623 4.28403 1.23223C4.11603 1.14823 3.95737 1.12023 3.80803 1.14823L2.24003 4.35423C2.52003 4.20489 2.81403 4.08823 3.12203 4.00423C3.43937 3.92023 3.7987 3.87823 4.20003 3.87823C4.9467 3.87823 5.48803 4.03223 5.82403 4.34023C6.16937 4.63889 6.34203 5.01689 6.34203 5.47423C6.34203 6.02489 6.20203 6.51956 5.92203 6.95823C5.64203 7.38756 5.2687 7.76556 4.80203 8.09223C4.3447 8.41889 3.83603 8.68956 3.27603 8.90423C2.71603 9.12823 2.15137 9.29623 1.58203 9.40823C1.0127 9.52023 0.485367 9.58556 3.31998e-05 9.60423L0.0700331 9.35223C0.602033 9.35223 1.15737 9.26823 1.73603 9.10023C2.3147 8.93223 2.85137 8.68489 3.34603 8.35823C3.8407 8.04089 4.24203 7.64423 4.55003 7.16823C4.85803 6.68289 5.01203 6.12756 5.01203 5.50223C5.01203 5.14756 4.89537 4.85823 4.66203 4.63423C4.43803 4.41023 4.0647 4.29823 3.54203 4.29823C3.37403 4.29823 3.16403 4.32156 2.91203 4.36823C2.66003 4.40556 2.35203 4.50823 1.98803 4.67623L1.84803 4.60623L3.94803 0.280226C4.20003 0.261559 4.4147 0.284893 4.59203 0.350226C4.76937 0.406226 4.9607 0.466893 5.16603 0.532227C5.37137 0.59756 5.6327 0.630226 5.95003 0.630226C6.18337 0.630226 6.39803 0.58356 6.59403 0.490226C6.79937 0.396893 6.97203 0.23356 7.11203 0.000225902Z" fill="#313131"></path></svg> 