<?xml version="1.0" encoding="UTF-8"?> <svg xmlns="http://www.w3.org/2000/svg" width="154" height="148" viewBox="0 0 154 148" fill="none"><path d="M154 133.905V148H105V133.905H122.22L77 25.4419C75.67 22.1295 73.5 19.4514 70.42 17.3371C67.34 15.2229 63.98 14.0952 60.27 14.0952C55.3 14.0952 50.96 15.9981 47.32 19.6629C43.68 23.3276 42 27.6267 42 32.701V56.381H49C64.47 56.381 77 68.9962 77 84.5714V148H49C53.27 142.08 56 134.821 56 126.857C56 107.406 40.32 91.619 21 91.619C16.03 91.619 11.27 92.6762 7 94.579V56.381H28V32.701C28 26.781 29.61 21.1429 32.41 16.3505C35.28 11.4171 39.13 7.47048 44.1 4.44C49 1.48 54.39 0 60.27 0C66.85 0 72.8 1.83238 78.12 5.42667C83.44 9.02095 87.5 13.8838 90.09 19.8038L137.62 133.905H154ZM42 126.857C42 138.556 32.62 148 21 148C9.38 148 0 138.556 0 126.857C0 115.158 9.38 105.714 21 105.714C32.62 105.714 42 115.158 42 126.857ZM28 126.857C28 122.981 24.85 119.81 21 119.81C17.15 119.81 14 122.981 14 126.857C14 130.733 17.15 133.905 21 133.905C24.85 133.905 28 130.733 28 126.857Z" fill="#313131" fill-opacity="0.1"></path></svg> 