<?xml version="1.0" encoding="UTF-8"?> <svg xmlns="http://www.w3.org/2000/svg" width="75" height="76" viewBox="0 0 75 76" fill="none"><path d="M21.5626 2.8125C21.5626 2.06658 21.2663 1.35121 20.7389 0.823762C20.2114 0.296316 19.4961 0 18.7501 0C18.0042 0 17.2888 0.296316 16.7614 0.823762C16.234 1.35121 15.9376 2.06658 15.9376 2.8125V8.7375C10.5376 9.16875 6.99764 10.2262 4.39514 12.8325C1.78889 15.435 0.731387 18.9788 0.296387 24.375H74.7039C74.2689 18.975 73.2114 15.435 70.6051 12.8325C68.0026 10.2262 64.4589 9.16875 59.0626 8.73375V2.8125C59.0626 2.06658 58.7663 1.35121 58.2389 0.823762C57.7114 0.296316 56.9961 0 56.2501 0C55.5042 0 54.7888 0.296316 54.2614 0.823762C53.7339 1.35121 53.4376 2.06658 53.4376 2.8125V8.48625C50.9439 8.4375 48.1464 8.4375 45.0001 8.4375H30.0001C26.8539 8.4375 24.0564 8.4375 21.5626 8.48625V2.8125Z" fill="#313131" fill-opacity="0.1"></path><path fill-rule="evenodd" clip-rule="evenodd" d="M0 38.4375C0 35.2913 4.09782e-08 32.4938 0.04875 30H74.9512C75 32.4938 75 35.2913 75 38.4375V45.9375C75 60.0788 75 67.1512 70.605 71.5425C66.21 75.9337 59.1413 75.9375 45 75.9375H30C15.8588 75.9375 8.78625 75.9375 4.395 71.5425C0.00374985 67.1475 0 60.0788 0 45.9375V38.4375ZM56.25 45.9375C57.2446 45.9375 58.1984 45.5424 58.9017 44.8391C59.6049 44.1359 60 43.1821 60 42.1875C60 41.1929 59.6049 40.2391 58.9017 39.5359C58.1984 38.8326 57.2446 38.4375 56.25 38.4375C55.2554 38.4375 54.3016 38.8326 53.5983 39.5359C52.8951 40.2391 52.5 41.1929 52.5 42.1875C52.5 43.1821 52.8951 44.1359 53.5983 44.8391C54.3016 45.5424 55.2554 45.9375 56.25 45.9375ZM56.25 60.9375C57.2446 60.9375 58.1984 60.5424 58.9017 59.8392C59.6049 59.1359 60 58.1821 60 57.1875C60 56.1929 59.6049 55.2391 58.9017 54.5358C58.1984 53.8326 57.2446 53.4375 56.25 53.4375C55.2554 53.4375 54.3016 53.8326 53.5983 54.5358C52.8951 55.2391 52.5 56.1929 52.5 57.1875C52.5 58.1821 52.8951 59.1359 53.5983 59.8392C54.3016 60.5424 55.2554 60.9375 56.25 60.9375ZM41.25 42.1875C41.25 43.1821 40.8549 44.1359 40.1516 44.8391C39.4484 45.5424 38.4946 45.9375 37.5 45.9375C36.5054 45.9375 35.5516 45.5424 34.8484 44.8391C34.1451 44.1359 33.75 43.1821 33.75 42.1875C33.75 41.1929 34.1451 40.2391 34.8484 39.5359C35.5516 38.8326 36.5054 38.4375 37.5 38.4375C38.4946 38.4375 39.4484 38.8326 40.1516 39.5359C40.8549 40.2391 41.25 41.1929 41.25 42.1875ZM41.25 57.1875C41.25 58.1821 40.8549 59.1359 40.1516 59.8392C39.4484 60.5424 38.4946 60.9375 37.5 60.9375C36.5054 60.9375 35.5516 60.5424 34.8484 59.8392C34.1451 59.1359 33.75 58.1821 33.75 57.1875C33.75 56.1929 34.1451 55.2391 34.8484 54.5358C35.5516 53.8326 36.5054 53.4375 37.5 53.4375C38.4946 53.4375 39.4484 53.8326 40.1516 54.5358C40.8549 55.2391 41.25 56.1929 41.25 57.1875ZM18.75 45.9375C19.7446 45.9375 20.6984 45.5424 21.4016 44.8391C22.1049 44.1359 22.5 43.1821 22.5 42.1875C22.5 41.1929 22.1049 40.2391 21.4016 39.5359C20.6984 38.8326 19.7446 38.4375 18.75 38.4375C17.7554 38.4375 16.8016 38.8326 16.0984 39.5359C15.3951 40.2391 15 41.1929 15 42.1875C15 43.1821 15.3951 44.1359 16.0984 44.8391C16.8016 45.5424 17.7554 45.9375 18.75 45.9375ZM18.75 60.9375C19.7446 60.9375 20.6984 60.5424 21.4016 59.8392C22.1049 59.1359 22.5 58.1821 22.5 57.1875C22.5 56.1929 22.1049 55.2391 21.4016 54.5358C20.6984 53.8326 19.7446 53.4375 18.75 53.4375C17.7554 53.4375 16.8016 53.8326 16.0984 54.5358C15.3951 55.2391 15 56.1929 15 57.1875C15 58.1821 15.3951 59.1359 16.0984 59.8392C16.8016 60.5424 17.7554 60.9375 18.75 60.9375Z" fill="#313131" fill-opacity="0.1"></path></svg> 