<?xml version="1.0" encoding="UTF-8"?> <svg xmlns="http://www.w3.org/2000/svg" width="20" height="15" viewBox="0 0 20 15" fill="none"><path d="M3.125 0C2.2962 0 1.50134 0.32924 0.915291 0.915291C0.32924 1.50134 0 2.2962 0 3.125V4.75H20V3.125C20 2.2962 19.6708 1.50134 19.0847 0.915291C18.4987 0.32924 17.7038 0 16.875 0H3.125ZM0 11.875V6H20V11.875C20 12.7038 19.6708 13.4987 19.0847 14.0847C18.4987 14.6708 17.7038 15 16.875 15H3.125C2.2962 15 1.50134 14.6708 0.915291 14.0847C0.32924 13.4987 0 12.7038 0 11.875ZM13.625 10.25C13.4592 10.25 13.3003 10.3158 13.1831 10.4331C13.0658 10.5503 13 10.7092 13 10.875C13 11.0408 13.0658 11.1997 13.1831 11.3169C13.3003 11.4342 13.4592 11.5 13.625 11.5H16.375C16.5408 11.5 16.6997 11.4342 16.8169 11.3169C16.9342 11.1997 17 11.0408 17 10.875C17 10.7092 16.9342 10.5503 16.8169 10.4331C16.6997 10.3158 16.5408 10.25 16.375 10.25H13.625Z" fill="#FAF9F6"></path></svg> 