<?xml version="1.0" encoding="UTF-8"?> <svg xmlns="http://www.w3.org/2000/svg" width="32" height="22" viewBox="0 0 32 22" fill="none"><path fill-rule="evenodd" clip-rule="evenodd" d="M15.8574 0.0638833C15.7985 0.0981671 15.6599 0.178488 15.5495 0.242363C15.4391 0.306239 15.0353 0.546644 14.6523 0.776596C14.2693 1.00655 13.8644 1.24793 13.7525 1.31299C13.5727 1.41763 12.2105 2.24044 12.1207 2.29872C12.1016 2.31117 12.065 2.33191 12.0394 2.34485C12.0139 2.35779 11.9649 2.38652 11.9306 2.40868C11.814 2.48393 11.148 2.88979 10.9686 2.99482C10.771 3.11054 10.7688 3.11196 10.5878 3.22875C10.5176 3.27411 10.4444 3.31882 10.4252 3.32814C10.4061 3.33745 10.3695 3.35775 10.3439 3.37327C10.3184 3.38878 10.2139 3.44783 10.1117 3.50448C10.0095 3.56111 9.68784 3.75183 9.39694 3.92829C9.106 4.10473 8.8632 4.24911 8.85732 4.24911C8.85147 4.24911 8.77835 4.29092 8.69488 4.34202C8.6114 4.39312 8.53439 4.43493 8.52375 4.43493C8.51313 4.43493 8.46153 4.46601 8.40908 4.50398C8.26773 4.60642 7.96261 4.7672 7.94433 4.74894C7.92554 4.73017 7.90937 2.51861 7.92749 2.44521C7.93666 2.4081 7.964 2.39093 8.03252 2.37936C8.11425 2.36557 8.12818 2.3536 8.15085 2.27795C8.18676 2.15807 8.17039 1.66628 8.12881 1.61627C8.10024 1.58194 8.00894 1.57794 7.25284 1.57794C6.44208 1.57794 6.40778 1.57971 6.38469 1.62287C6.37148 1.64758 6.36065 1.80885 6.36065 1.98124C6.36065 2.33237 6.37433 2.36768 6.51044 2.36768C6.55266 2.36768 6.6009 2.38415 6.6176 2.40429C6.65202 2.44575 6.68152 3.47454 6.68424 4.72752C6.68603 5.54541 6.69827 5.49039 6.4884 5.60701C6.42452 5.64248 6.22594 5.75541 6.0471 5.85796C5.86826 5.96051 5.6749 6.07077 5.61741 6.10299C5.55993 6.1352 5.4474 6.20161 5.36732 6.25058C5.28726 6.29954 5.21709 6.33958 5.21138 6.33958C5.20566 6.33958 5.12351 6.38662 5.02884 6.44411C4.93415 6.5016 4.85065 6.54863 4.84329 6.54863C4.81504 6.54863 4.36766 6.82885 4.33721 6.86559C4.29211 6.92002 4.29048 7.78601 4.33538 7.83081C4.37702 7.87237 4.86389 7.85878 5.04837 7.81088C5.19112 7.77384 5.40348 7.67491 5.54732 7.57842C5.5918 7.5486 5.64148 7.52419 5.65769 7.52419C5.68147 7.52419 5.68605 8.81166 5.68133 14.1731L5.67548 20.8219H4.79289C3.92316 20.8219 3.91041 20.8213 3.91814 20.7755C3.92244 20.7499 3.93933 20.6977 3.95563 20.6593C3.98627 20.5873 4.03727 20.4566 4.09376 20.3051C4.13875 20.1845 4.20062 19.9008 4.20062 19.8152C4.20062 19.7761 4.21049 19.694 4.22255 19.6327C4.2346 19.5714 4.25125 19.4193 4.25954 19.2947L4.27464 19.0683H4.34859C4.38926 19.0683 4.44577 19.052 4.47415 19.0321C4.52051 18.9996 4.52579 18.9761 4.52579 18.8015C4.52579 18.6557 4.51666 18.5979 4.4893 18.5705C4.45794 18.5392 4.36601 18.534 3.83897 18.534H3.22512V18.4718C3.22512 18.3838 3.26317 18.2697 3.35753 18.0747C3.45569 17.8719 3.54481 17.7932 3.85223 17.6379C3.97358 17.5767 4.13371 17.4867 4.20808 17.438C4.28242 17.3893 4.3521 17.3494 4.3629 17.3494C4.37372 17.3494 4.38603 17.3416 4.39031 17.332C4.39456 17.3224 4.45778 17.2739 4.53078 17.2242C4.65153 17.1419 4.80984 16.9883 5.11113 16.6608C5.23098 16.5306 5.32741 16.3655 5.30493 16.3291C5.24717 16.2357 4.8281 16.2802 4.53389 16.411C4.49364 16.4289 4.45348 16.4435 4.44463 16.4435C4.43581 16.4435 4.32764 16.5101 4.20429 16.5915C3.85506 16.8217 3.66795 17.0394 3.51278 17.3957C3.45416 17.5303 3.43323 17.5599 3.42038 17.5264C3.40522 17.4868 3.44586 17.0349 3.50627 16.5713C3.51961 16.4691 3.53614 16.1242 3.54304 15.8048C3.55222 15.3808 3.56432 15.2052 3.58787 15.154C3.61874 15.087 3.82308 14.9368 4.087 14.7873C4.55793 14.5204 5.04961 14.0125 5.26761 13.5677C5.41679 13.2633 5.41349 13.2071 5.24779 13.2312C5.00712 13.2661 4.6998 13.4018 4.27766 13.6597C3.86598 13.9111 3.63105 14.252 3.58459 14.6651C3.55447 14.9332 3.49638 14.9906 3.47134 14.777C3.45608 14.6469 3.44756 14.6082 3.37029 14.3182C3.31115 14.0965 3.14713 13.7649 2.95235 13.4734C2.61704 12.9715 2.0401 12.4484 1.82194 12.4484C1.74336 12.4484 1.72776 12.541 1.74794 12.8873C1.77751 13.3953 1.91772 13.8047 2.20649 14.2264C2.37379 14.4707 2.56875 14.6566 2.86391 14.8532C3.15537 15.0473 3.24461 15.1254 3.25852 15.1987C3.26358 15.2255 3.28623 15.3414 3.30883 15.4564C3.35514 15.6919 3.36237 16.2083 3.32151 16.3623C3.28825 16.4876 3.22849 16.8908 3.20101 17.1752C3.16617 17.5358 3.07002 18.2072 3.05018 18.2284C3.03453 18.2452 2.97328 18.098 2.9357 17.9533C2.87443 17.7175 2.82953 17.3475 2.81437 16.9537L2.80046 16.5929L2.93623 16.2801C3.07055 15.9708 3.07204 15.965 3.07164 15.7467C3.07106 15.4137 2.96227 15.1188 2.83313 15.1003C2.76826 15.0909 2.59339 15.2624 2.54179 15.3859C2.42624 15.6625 2.4028 16.0202 2.48242 16.2926C2.57583 16.6121 2.65864 17.3726 2.60001 17.3726C2.58833 17.3726 2.54806 17.3227 2.5105 17.2617C2.35103 17.0025 2.01534 16.7198 1.67949 16.5619C1.40579 16.4332 1.29389 16.396 1.04186 16.3503C0.868876 16.319 0.711867 16.3535 0.697908 16.426C0.672777 16.5566 0.994645 16.9329 1.32058 17.154C1.47162 17.2565 1.80264 17.4273 2.36575 17.6934C2.53261 17.7723 2.63924 17.8705 2.7109 18.0114C2.76966 18.1269 2.85987 18.4607 2.8437 18.5028C2.83406 18.528 2.69689 18.534 2.13554 18.534C1.44245 18.534 1.43917 18.5343 1.40319 18.5857C1.35177 18.6591 1.35333 18.9351 1.40547 18.9872C1.46019 19.042 1.5537 19.0731 1.61627 19.0574C1.64579 19.05 1.68985 19.0546 1.71421 19.0676C1.75437 19.0891 1.75869 19.1212 1.7602 19.4108C1.76183 19.7197 1.79462 19.9725 1.86943 20.2529C1.90084 20.3706 1.92924 20.4503 2.006 20.6361C2.0565 20.7583 2.0673 20.8331 2.03522 20.8384C2.01901 20.8411 1.55632 20.8437 1.00702 20.8442L0.00830068 20.8452L0.00161151 21.1703C-0.00205823 21.3492 0.000752237 21.5191 0.00788266 21.5478L0.0207964 21.6001H15.9721C28.3477 21.6001 31.9296 21.5938 31.9512 21.5722C31.99 21.5334 31.99 20.9234 31.9512 20.8846C31.9304 20.8638 31.6687 20.8568 30.9169 20.8568C30.0887 20.8568 29.9084 20.8512 29.8984 20.8251C29.8917 20.8077 29.9138 20.7162 29.9474 20.6219C30.0885 20.2263 30.1575 19.8654 30.18 19.4051C30.1881 19.239 30.2056 19.09 30.2188 19.0741C30.232 19.0581 30.2913 19.045 30.3505 19.045C30.4864 19.045 30.5186 18.9999 30.5338 18.7882C30.5442 18.6424 30.5416 18.6323 30.4807 18.5844C30.4186 18.5355 30.3979 18.534 29.7825 18.534C29.3649 18.534 29.1431 18.5257 29.1332 18.5097C29.1085 18.4698 29.1925 18.1374 29.2619 17.9998C29.3285 17.8678 29.4281 17.7443 29.4679 17.7443C29.4804 17.7443 29.5619 17.7123 29.649 17.6731C29.8183 17.5971 29.843 17.5867 30.0049 17.5228C30.5168 17.3208 30.7948 17.1417 31.162 16.7778C31.3807 16.561 31.401 16.5336 31.3942 16.4637C31.3878 16.3974 31.3759 16.3847 31.3055 16.3687C31.2608 16.3586 31.1302 16.3568 31.0152 16.3648C30.4701 16.4027 29.8016 16.8097 29.4638 17.3094C29.4266 17.3646 29.3984 17.3873 29.3881 17.3707C29.3436 17.2986 29.4172 16.6922 29.5063 16.3971C29.577 16.1628 29.5922 16.0392 29.5777 15.8164C29.5544 15.4586 29.4425 15.1895 29.2826 15.1068C29.1807 15.0541 29.1494 15.0654 29.0759 15.1813C28.9806 15.3315 28.9365 15.5014 28.9365 15.7178C28.9365 15.9313 28.9521 15.9875 29.0883 16.2631C29.1508 16.3896 29.1947 16.5153 29.2049 16.5973C29.2219 16.7334 29.1849 17.2652 29.1428 17.4888C29.0689 17.8814 28.9813 18.1972 28.9463 18.1972C28.8972 18.1972 28.8548 17.8557 28.7963 16.9894C28.7834 16.7978 28.7626 16.5644 28.7501 16.4709C28.7377 16.3773 28.7274 16.0614 28.7274 15.7687C28.7274 15.1583 28.7409 15.0936 28.8983 14.9513C28.9512 14.9034 29.0036 14.8642 29.0147 14.8641C29.0719 14.864 29.3381 14.6742 29.4707 14.5391C29.9068 14.0946 30.1455 13.4939 30.1814 12.7504C30.1925 12.52 30.1886 12.4512 30.1627 12.4172C30.131 12.3756 30.1268 12.3758 30.0268 12.4228C29.97 12.4495 29.8662 12.5184 29.796 12.576C29.7258 12.6336 29.6612 12.6807 29.6524 12.6807C29.617 12.6807 29.1122 13.2618 28.9967 13.4356C28.7173 13.8557 28.5573 14.2706 28.5049 14.7107L28.4913 14.8245L28.4469 14.7572C28.4225 14.7202 28.4025 14.6615 28.4024 14.6268C28.4022 14.546 28.3461 14.3806 28.2564 14.1961C28.1319 13.9402 27.8858 13.7224 27.4567 13.4884C27.1164 13.3028 26.7335 13.1675 26.6448 13.2016C26.5954 13.2206 26.6086 13.315 26.6842 13.4836C26.881 13.9222 27.2709 14.3188 27.9029 14.7233C28.0556 14.821 28.0865 14.8399 28.1352 14.8645C28.2997 14.948 28.4178 15.0295 28.4426 15.0766C28.4584 15.1066 28.4714 15.2153 28.4716 15.3181C28.4721 15.5661 28.5139 16.4107 28.5423 16.7455C28.6103 17.5462 28.6067 17.5767 28.4749 17.3203C28.3202 17.0195 28.2027 16.8777 27.9377 16.6719C27.6676 16.4622 27.3477 16.3228 27.041 16.2811C26.6214 16.2242 26.5985 16.2651 26.8641 16.5976C27.2114 17.0324 27.5656 17.3202 28.0395 17.5528C28.3549 17.7076 28.4752 17.8027 28.5719 17.9734C28.6973 18.1945 28.7893 18.4866 28.7429 18.5161C28.728 18.5255 28.4488 18.5335 28.1224 18.5337C27.6922 18.5339 27.5213 18.5417 27.5011 18.5619C27.4837 18.5792 27.4732 18.6651 27.4732 18.7895C27.4732 19.0156 27.4893 19.045 27.6126 19.045C27.7381 19.045 27.7519 19.0728 27.7519 19.3244C27.7519 19.5466 27.7973 19.9404 27.8475 20.1531C27.862 20.2144 27.9154 20.369 27.9661 20.4967C28.017 20.6245 28.0601 20.7552 28.062 20.7871L28.0655 20.8452L27.2293 20.8364C26.7695 20.8315 26.3854 20.8231 26.3759 20.8176C26.3548 20.8056 26.3522 7.58458 26.3732 7.56356C26.3813 7.55543 26.4153 7.56797 26.4486 7.59143C26.5357 7.65261 26.8184 7.7929 26.9274 7.829C26.9897 7.84967 27.1197 7.85797 27.3222 7.85423C27.5733 7.84958 27.6291 7.84208 27.6532 7.80972C27.6741 7.78176 27.6823 7.64522 27.6823 7.3241C27.6823 6.88624 27.6811 6.87607 27.6265 6.81173C27.5958 6.77561 27.5305 6.72525 27.4813 6.69982C27.4322 6.67439 27.3261 6.61002 27.2456 6.55676C27.1651 6.50352 27.0345 6.42699 26.9553 6.38671C26.8761 6.34644 26.7908 6.30105 26.7657 6.28588C26.6601 6.22196 26.5486 6.15715 26.4397 6.09637C26.0262 5.86574 25.9161 5.80442 25.8125 5.74719C25.7487 5.71188 25.6076 5.62857 25.499 5.56204C25.3904 5.49552 25.2389 5.40663 25.1622 5.36452C25.0856 5.32238 24.9762 5.26218 24.9191 5.2307C24.862 5.19923 24.7713 5.14318 24.7175 5.10616C24.6637 5.06913 24.613 5.03884 24.6049 5.03884C24.5967 5.03884 24.5568 5.01415 24.5161 4.98398C24.4755 4.95378 24.369 4.88951 24.2796 4.84111C24.1902 4.79272 24.078 4.72857 24.0304 4.69856C23.9827 4.66853 23.9388 4.64398 23.9327 4.64398C23.9267 4.64398 23.8006 4.57081 23.6525 4.48138C23.5044 4.39196 23.3796 4.31879 23.375 4.31879C23.3657 4.31879 22.9104 4.04817 22.579 3.84569C22.4612 3.77376 22.3598 3.71488 22.3536 3.71488C22.3475 3.71488 22.1041 3.57026 21.8129 3.3935C21.3123 3.08966 21.1555 2.99814 20.9195 2.87209C20.8642 2.84257 20.6465 2.71324 20.4357 2.58472C20.2249 2.4562 19.9898 2.3169 19.9131 2.27516C19.8365 2.23343 19.7424 2.1764 19.7041 2.14846C19.6285 2.09332 19.2363 1.85542 18.7411 1.56429C18.5692 1.46322 18.4072 1.36785 18.3811 1.35238C18.3551 1.33691 18.3181 1.31661 18.2989 1.30727C18.2797 1.29794 18.0254 1.14598 17.7338 0.96957C17.4421 0.79318 17.1997 0.648845 17.195 0.648845C17.1904 0.648845 17.0543 0.567827 16.8928 0.468832C16.7312 0.369836 16.5817 0.278366 16.5605 0.265591C16.3622 0.145969 16.0617 -0.00122339 16.0184 7.67059e-06C15.9889 0.000867088 15.9164 0.0296227 15.8574 0.0638833ZM15.9676 1.4216C15.9308 1.43412 15.8211 1.49474 15.7237 1.55627C15.6263 1.61783 15.4055 1.7542 15.233 1.85935C15.0606 1.9645 14.8359 2.10456 14.7337 2.17059C14.6315 2.23663 14.4072 2.37332 14.2353 2.47434C14.0633 2.57536 13.9013 2.67068 13.8753 2.68615C13.8492 2.70162 13.8122 2.72185 13.793 2.73114C13.7643 2.74503 13.3453 2.99989 13.1304 3.13419C12.7583 3.36667 12.5325 3.50109 12.425 3.55409C12.3534 3.58935 12.1956 3.68092 12.0743 3.75757C11.5206 4.10726 11.4406 4.15573 11.0959 4.35026C10.9634 4.42506 10.8288 4.50435 10.7968 4.52649C10.7649 4.54863 10.6761 4.60149 10.5994 4.644C10.5228 4.68648 10.3753 4.77644 10.2717 4.84387C10.1681 4.91132 10.0427 4.9887 9.99299 5.01582C9.85024 5.09373 9.763 5.14576 9.39536 5.3723C9.06952 5.57305 8.9984 5.61554 8.77733 5.74148C8.72688 5.77023 8.56962 5.8669 8.42787 5.95633C8.28615 6.04576 8.12205 6.14628 8.06327 6.17973C8.00448 6.21318 7.92133 6.26851 7.87853 6.30268L7.80067 6.36479V12.0203V17.6758L7.44647 17.6694L7.09228 17.663L7.07813 17.4772C7.07035 17.375 7.06245 14.9563 7.06062 12.1023C7.05809 8.21711 7.05049 6.90506 7.0304 6.88085C7.01242 6.85918 6.98079 6.85354 6.93448 6.86371C6.82624 6.88747 6.46974 7.11116 6.43711 7.17577C6.41372 7.22207 6.40775 8.40802 6.40766 13.0291C6.40759 16.7479 6.39816 19.1666 6.38135 19.7796C6.36246 20.4684 6.36221 20.7471 6.38042 20.7784C6.40357 20.8183 6.40585 20.8171 6.40766 20.7639C6.41054 20.6781 6.44589 20.3906 6.48763 20.1135C6.50784 19.9794 6.53429 19.7917 6.54644 19.6964C6.55858 19.6011 6.57879 19.4705 6.59138 19.4061C6.64696 19.1213 6.66851 18.8478 6.65411 18.6098C6.64297 18.4253 6.64773 18.3275 6.67228 18.2366C6.71318 18.0849 6.74026 18.0511 6.8628 17.9986C6.94895 17.9617 7.06208 17.9565 7.93153 17.9495C8.6315 17.9439 8.93645 17.9495 9.02005 17.9696C9.24629 18.0238 9.51007 18.0695 9.60123 18.0702C9.71272 18.071 10.0829 18.1453 10.1853 18.1874C10.2745 18.224 10.3194 18.1966 10.3541 18.0844C10.3808 17.9977 10.4999 17.6672 10.5379 17.5744C10.5526 17.5384 10.5646 17.4961 10.5646 17.4803C10.5646 17.4645 10.5758 17.4404 10.5895 17.4267C10.6032 17.413 10.611 17.3665 10.6069 17.3233L10.5994 17.2449L9.90145 17.2388L9.20349 17.2326L9.16402 17.3221C9.14231 17.3712 9.12456 17.4212 9.12456 17.4331C9.12456 17.4664 9.02901 17.6377 8.99972 17.6568C8.98535 17.6662 8.88812 17.674 8.78363 17.6743C8.59478 17.6746 8.52068 17.6469 8.52068 17.5758C8.52068 17.5389 8.63941 17.0852 8.68324 16.9546C8.69395 16.9226 8.7358 16.7554 8.77624 16.5829C9.02051 15.5412 9.07288 15.3878 9.24227 15.2183C9.29653 15.1639 9.398 15.0925 9.46775 15.0595L9.59459 14.9995L10.3928 15.0001L11.1909 15.0006L11.3133 15.0618C11.4771 15.1438 11.5299 15.1973 11.5614 15.3129C11.5996 15.4531 11.5789 15.544 11.2691 16.5945C11.2503 16.6584 11.2263 16.742 11.2156 16.7803C11.205 16.8187 11.1861 16.8814 11.1736 16.9197C11.161 16.958 11.1336 17.0469 11.1127 17.1171C11.0599 17.2939 10.8068 18.0682 10.7786 18.1392C10.7659 18.1711 10.7374 18.2443 10.7153 18.3017C10.6161 18.56 10.5434 18.7178 10.4781 18.8164L10.4201 18.9041L10.5311 19.2475C10.5921 19.4364 10.6508 19.6008 10.6614 19.6129C10.672 19.6251 10.6807 19.6496 10.6807 19.6675C10.6807 19.6854 10.6954 19.7329 10.7135 19.7732C10.7315 19.8134 10.7794 19.9404 10.82 20.0554C10.8606 20.1704 10.9033 20.2826 10.915 20.3048C10.9267 20.327 10.9362 20.3568 10.9362 20.371C10.9362 20.3852 10.9506 20.4298 10.9682 20.47C10.9858 20.5103 11.0186 20.5955 11.0412 20.6593C11.0637 20.7232 11.0924 20.7886 11.1049 20.8045C11.123 20.8276 12.1276 20.8335 15.9891 20.8335C20.3775 20.8335 20.854 20.83 20.887 20.7971C20.907 20.777 20.9234 20.741 20.9234 20.7171C20.9234 20.6932 20.9339 20.6672 20.9467 20.6593C20.9594 20.6514 20.97 20.6273 20.97 20.6057C20.9701 20.5841 20.984 20.54 21.0008 20.5077C21.0177 20.4754 21.0376 20.4284 21.0452 20.4032C21.0527 20.378 21.0812 20.2999 21.1084 20.2296C21.1356 20.1594 21.179 20.0392 21.2049 19.9625C21.2308 19.8859 21.2613 19.8022 21.2727 19.7767C21.3003 19.715 21.4092 19.403 21.4389 19.3005C21.4519 19.2558 21.4697 19.2088 21.4785 19.196C21.4873 19.1832 21.5135 19.1175 21.5368 19.05L21.5791 18.9272L21.477 18.748C21.3323 18.4941 21.241 18.2825 21.179 18.0579C21.1684 18.0195 21.1483 17.9568 21.1342 17.9185C21.1011 17.8286 20.9333 17.3028 20.8895 17.152C20.7892 16.8064 20.7414 16.6381 20.6784 16.4087C20.6573 16.3321 20.631 16.238 20.6199 16.1997C20.6089 16.1613 20.5828 16.0673 20.5621 15.9906C20.5414 15.914 20.5096 15.8089 20.4915 15.7571C20.4734 15.7053 20.4563 15.5671 20.4537 15.4501C20.4489 15.2429 20.4506 15.2353 20.5177 15.1648C20.5556 15.125 20.6285 15.0717 20.6796 15.0465C20.7664 15.0036 20.8226 15.0006 21.5342 15.0005C22.4051 15.0004 22.4477 15.0072 22.6375 15.1778C22.7992 15.3232 22.9364 15.6064 23.0484 16.0255C23.0706 16.1085 23.098 16.2026 23.1094 16.2345C23.1301 16.2929 23.2292 16.6538 23.2719 16.8268C23.2846 16.8779 23.3195 16.9981 23.3496 17.0939C23.436 17.3689 23.4783 17.5245 23.4783 17.5675C23.4783 17.6273 23.3383 17.6746 23.1612 17.6746C22.9619 17.6746 22.9167 17.6355 22.847 17.4034L22.7957 17.2326L22.0979 17.2388C21.4368 17.2446 21.3998 17.2472 21.3918 17.2884C21.3843 17.3273 21.4306 17.5136 21.479 17.6398C21.4888 17.6653 21.5149 17.7437 21.5369 17.814C21.559 17.8842 21.5995 17.9974 21.6268 18.0654C21.6681 18.1679 21.6848 18.1871 21.7239 18.1776C21.7499 18.1712 21.8352 18.15 21.9135 18.1303C21.9917 18.1107 22.1276 18.0882 22.2154 18.0803C22.3032 18.0725 22.4744 18.0517 22.5957 18.0341C23.1691 17.9507 23.2994 17.9431 24.1635 17.9424C25.1113 17.9417 25.1627 17.9472 25.2691 18.0603C25.3228 18.1175 25.3253 18.1359 25.3402 18.5881C25.3486 18.8458 25.3665 19.2239 25.3799 19.4283C25.3933 19.6327 25.4047 19.9403 25.4052 20.1119C25.4064 20.5418 25.444 20.8259 25.5018 20.841C25.5258 20.8473 25.5533 20.8403 25.5628 20.8256C25.5724 20.8108 25.5831 17.7247 25.5865 13.9676L25.5927 7.13657L25.5441 7.07487C25.5175 7.04094 25.4851 7.01318 25.4722 7.01318C25.4593 7.01318 25.3393 6.95017 25.2056 6.87314C25.0719 6.79612 24.9526 6.73926 24.9404 6.74676C24.9266 6.75533 24.9183 8.77647 24.9183 12.1808C24.9183 15.162 24.912 17.6177 24.9042 17.6379C24.8922 17.6692 24.8363 17.6746 24.5226 17.6746C24.166 17.6746 24.1545 17.6731 24.139 17.6243C24.1303 17.5966 24.1269 15.0262 24.1317 11.9123C24.1364 8.79831 24.135 6.24563 24.1287 6.23964C24.1223 6.23364 23.8087 6.04297 23.4319 5.81592C23.055 5.58889 22.6393 5.33685 22.508 5.25584C22.3767 5.17482 22.2649 5.10853 22.2595 5.10853C22.2542 5.10853 22.1023 5.01968 21.9222 4.91109C21.742 4.8025 21.5886 4.71366 21.5814 4.71366C21.5741 4.71366 21.4378 4.63264 21.2785 4.53365C21.1192 4.43465 20.9454 4.32864 20.8923 4.29807C20.8392 4.26753 20.7434 4.20904 20.6796 4.16809C20.6157 4.12716 20.5269 4.07263 20.4821 4.04691C20.4374 4.0212 20.15 3.84827 19.8434 3.66264C19.5368 3.47698 19.1606 3.25235 19.0073 3.16345C18.854 3.07454 18.4172 2.81209 18.0366 2.58021C17.6561 2.34835 17.34 2.15863 17.3343 2.15863C17.3286 2.15863 17.0547 1.99539 16.7256 1.79587C16.3965 1.59634 16.1063 1.42539 16.0808 1.41596C16.0552 1.40653 16.0043 1.40906 15.9676 1.4216ZM15.6859 3.66737C15.2074 3.76474 14.8577 3.95465 14.522 4.29944C14.2041 4.62611 14.0383 4.9388 13.9453 5.38726C13.8676 5.76217 13.9202 6.26767 14.0681 6.56577C14.0792 6.58828 14.1236 6.67757 14.1668 6.76418C14.3852 7.20281 14.83 7.58883 15.2911 7.74004C15.6484 7.8572 15.6741 7.86103 16.0924 7.85968C16.4906 7.85843 16.5028 7.85692 16.6924 7.78512C17.0997 7.63089 17.4053 7.40642 17.6414 7.08783C17.7793 6.90178 17.9723 6.54417 17.9732 6.47282C17.9735 6.45029 17.9834 6.4137 17.9952 6.39152C18.0884 6.21655 18.1222 5.59122 18.0534 5.31365C17.9606 4.93927 17.7968 4.6283 17.5186 4.29847C17.4363 4.20089 17.1725 4.00085 17.0095 3.91233C16.9203 3.8639 16.8368 3.81705 16.824 3.80823C16.8113 3.7994 16.7381 3.7745 16.6614 3.75292C16.5848 3.73132 16.4907 3.70217 16.4524 3.68812C16.3663 3.6566 15.8126 3.64159 15.6859 3.66737ZM15.6395 4.17766C15.4538 4.20892 15.101 4.41038 14.8879 4.60683C14.6397 4.83567 14.41 5.28656 14.4245 5.51635L14.4317 5.63114L15.1386 5.6373C15.6885 5.64209 15.8495 5.63693 15.864 5.61407C15.8855 5.58016 15.8905 4.24818 15.8693 4.19294C15.8544 4.15425 15.8 4.15062 15.6395 4.17766ZM16.1479 4.21606C16.1222 4.31856 16.1589 5.57612 16.1887 5.61198C16.2088 5.63625 16.3585 5.64276 16.8973 5.64276C17.4814 5.64276 17.5823 5.63774 17.5936 5.6081C17.6082 5.5702 17.5649 5.29063 17.5349 5.22852C17.5246 5.20724 17.477 5.10832 17.4292 5.00869C17.2921 4.72351 17.0421 4.47857 16.7311 4.32474C16.4945 4.20769 16.4294 4.18426 16.2946 4.16739C16.1659 4.15132 16.164 4.15197 16.1479 4.21606ZM14.408 5.94546C14.3876 5.97858 14.4177 6.18977 14.4592 6.30474C14.5605 6.58484 14.6646 6.74681 14.8846 6.96673C15.1181 7.20016 15.248 7.28295 15.5541 7.39337C15.6473 7.42698 15.7544 7.4545 15.7922 7.4545H15.8608L15.8547 6.6938L15.8485 5.9331L15.1359 5.92697C14.6525 5.92279 14.4184 5.92874 14.408 5.94546ZM16.1667 5.94936C16.1463 5.96983 16.1389 6.167 16.1389 6.69183C16.1389 7.51747 16.1282 7.4811 16.3502 7.41527C16.6073 7.33906 16.7068 7.28908 16.96 7.10883C17.2557 6.89839 17.4125 6.68061 17.5307 6.31636C17.6046 6.08887 17.624 5.98267 17.5975 5.9508C17.5633 5.90962 16.2078 5.90827 16.1667 5.94936ZM13.3297 9.44626C12.7439 9.45112 12.5483 9.45978 12.5345 9.48143C12.5245 9.49722 12.5161 11.9416 12.5159 14.9135C12.5156 19.2083 12.5215 20.3218 12.5446 20.3407C12.5642 20.3568 13.7014 20.3645 16.0409 20.3644C19.0597 20.3643 19.5125 20.3598 19.5422 20.3301C19.572 20.3003 19.5763 19.6145 19.5763 14.8903C19.5763 10.7168 19.57 9.47822 19.5485 9.45671C19.527 9.4353 18.8942 9.43012 16.8136 9.43432C15.3247 9.43734 13.757 9.44271 13.3297 9.44626ZM13.2497 10.4644C13.2314 10.5121 13.2319 12.3044 13.2502 12.3729C13.2641 12.4248 13.2672 12.4252 13.7136 12.4252C14.1341 12.4252 14.1645 12.4223 14.187 12.3803C14.2024 12.3515 14.2111 12.0085 14.2111 11.4264C14.2111 10.8443 14.2024 10.5013 14.187 10.4725C14.1645 10.4305 14.1341 10.4276 13.7134 10.4276C13.3248 10.4276 13.2619 10.4326 13.2497 10.4644ZM14.4396 10.5728C14.4325 10.8514 14.4487 12.3905 14.459 12.4078C14.4646 12.4174 14.6826 12.4252 14.9433 12.4252C15.3881 12.4252 15.4187 12.4224 15.4413 12.3803C15.4567 12.3514 15.4653 11.9946 15.4653 11.3815V10.4276H14.9543H14.4433L14.4396 10.5728ZM16.548 10.4639C16.5401 10.4844 16.5337 10.918 16.5337 11.4275C16.5337 12.3196 16.5354 12.3548 16.5786 12.3779C16.6506 12.4165 17.4739 12.4096 17.5066 12.3702C17.5255 12.3474 17.5312 12.0706 17.5269 11.3889L17.5208 10.4392L17.0415 10.433C16.6197 10.4274 16.5606 10.4312 16.548 10.4639ZM17.8025 10.4799C17.7949 10.5086 17.7884 10.942 17.7882 11.443C17.7879 12.3199 17.7896 12.3548 17.8328 12.3779C17.8893 12.4081 18.7154 12.4096 18.7629 12.3795C18.7922 12.361 18.7973 12.2238 18.7977 11.4378C18.798 10.9318 18.7907 10.4975 18.7816 10.4727C18.7658 10.4301 18.7388 10.4276 18.2907 10.4276C17.8186 10.4276 17.8165 10.4279 17.8025 10.4799ZM13.2511 12.7194C13.2426 12.7279 13.2356 13.1753 13.2356 13.7135C13.2356 14.4438 13.2427 14.6993 13.2635 14.7201C13.2992 14.7558 14.1002 14.7592 14.1662 14.7239C14.2095 14.7007 14.2111 14.6649 14.2111 13.716C14.2111 12.8402 14.207 12.7306 14.1743 12.718C14.1242 12.6988 13.2704 12.7 13.2511 12.7194ZM14.4399 12.8839C14.428 13.4935 14.4514 14.7147 14.4752 14.7302C14.514 14.7554 15.3782 14.7509 15.4188 14.7252C15.4491 14.706 15.4526 14.5751 15.4451 13.721C15.439 13.0245 15.4289 12.7338 15.4103 12.7217C15.3958 12.7123 15.1724 12.7045 14.9137 12.7043L14.4433 12.7039L14.4399 12.8839ZM16.5393 13.7197L16.5453 14.7363L16.9866 14.7429C17.2293 14.7465 17.4515 14.7437 17.4804 14.7366L17.5329 14.7237L17.5269 13.7196L17.5208 12.7155L17.027 12.7093L16.5332 12.703L16.5393 13.7197ZM17.8169 12.7193C17.7944 12.7284 17.7879 12.9496 17.7879 13.7154C17.7879 14.6649 17.7895 14.7007 17.8328 14.7239C17.8897 14.7543 18.7156 14.7554 18.7634 14.7252C18.7934 14.7062 18.7986 14.5681 18.8007 13.7325C18.8022 13.1309 18.7945 12.751 18.7805 12.733C18.7636 12.7114 18.6408 12.7044 18.3019 12.7058C18.0511 12.7068 17.8329 12.7129 17.8169 12.7193ZM15.7392 14.087C15.6322 14.1571 15.6047 14.2071 15.6047 14.3314C15.6047 14.5687 15.8274 14.7212 16.0249 14.6191C16.2416 14.507 16.2378 14.1735 16.0186 14.0641C15.9186 14.0143 15.8405 14.0207 15.7392 14.087ZM27.0668 14.9024C27.0029 14.9208 26.867 14.9609 26.7648 14.9914C26.6626 15.0219 26.545 15.0536 26.5035 15.0619C26.4457 15.0733 26.428 15.0888 26.428 15.1281C26.428 15.1658 26.4696 15.2067 26.584 15.282C26.7911 15.4181 26.9738 15.49 27.241 15.5404C27.5149 15.5921 27.6774 15.5942 27.8956 15.5487C28.0697 15.5125 28.3703 15.408 28.3894 15.3772C28.4323 15.3076 28.2332 15.1412 27.9726 15.0287C27.9087 15.0011 27.8392 14.969 27.8181 14.9574C27.6583 14.8692 27.2784 14.8414 27.0668 14.9024ZM4.34297 15.0052C4.01655 15.0894 3.66642 15.2937 3.66642 15.3998C3.66642 15.4463 3.8795 15.5447 4.11933 15.6091C4.33176 15.6661 4.75895 15.6704 4.90275 15.617C5.37779 15.4404 5.48981 15.3845 5.56618 15.2862L5.61946 15.2176L5.54021 15.1686C5.49662 15.1416 5.44375 15.1196 5.42273 15.1196C5.40171 15.1196 5.36636 15.1097 5.34418 15.0976C5.2212 15.0305 4.82013 14.9547 4.61121 14.959C4.55784 14.9601 4.43713 14.9809 4.34297 15.0052ZM13.2515 15.0185C13.2319 15.0381 13.2301 16.9132 13.2497 16.9643C13.2619 16.996 13.3247 17.001 13.7114 17.001H14.159L14.1854 16.9371C14.2039 16.8922 14.2099 16.5976 14.2056 15.9442L14.1995 15.0151L13.7335 15.0088C13.4772 15.0053 13.2603 15.0097 13.2515 15.0185ZM14.4584 15.0212C14.4402 15.0506 14.4314 15.6011 14.4375 16.3216L14.4433 17.001H14.9402C15.3719 17.001 15.439 16.9962 15.4512 16.9643C15.4765 16.8983 15.4672 15.0968 15.4413 15.0484C15.4187 15.0062 15.3881 15.0034 14.9433 15.0034C14.6826 15.0034 14.4644 15.0114 14.4584 15.0212ZM16.5702 15.0399C16.5382 15.0719 16.5337 15.1915 16.5337 16.0013C16.5337 17.0655 16.5198 16.9996 16.7547 17.0467C16.8594 17.0677 16.9396 17.0684 17.0757 17.0495C17.1754 17.0356 17.3065 17.0242 17.3669 17.0242C17.4273 17.0242 17.4892 17.0117 17.5046 16.9964C17.5253 16.9756 17.5324 16.7223 17.5324 16.0001C17.5324 15.1384 17.5284 15.0301 17.4957 15.0175C17.4755 15.0098 17.2672 15.0034 17.0328 15.0034C16.6764 15.0034 16.6007 15.0094 16.5702 15.0399ZM17.8038 15.0185C17.7951 15.0273 17.7879 15.4643 17.7879 15.9898C17.7879 16.702 17.795 16.9524 17.8158 16.9731C17.8356 16.9929 17.977 17.001 18.3043 17.001C18.7214 17.001 18.7664 16.9972 18.7808 16.9604C18.7895 16.938 18.797 16.4912 18.7975 15.9674L18.7983 15.0151L18.309 15.0088C18.0399 15.0054 17.8126 15.0097 17.8038 15.0185ZM14.4866 17.2953C14.4343 17.3091 14.4275 17.4682 14.4394 18.3989L14.4491 19.1601L14.5221 19.1738C14.5622 19.1814 14.7808 19.1842 15.0078 19.1801C15.3438 19.1742 15.4247 19.1663 15.4426 19.1379C15.4554 19.1176 15.4647 18.733 15.465 18.2155C15.4653 17.3615 15.4636 17.3269 15.4204 17.3038C15.3771 17.2806 14.5693 17.2733 14.4866 17.2953ZM13.2502 17.3552C13.2251 17.449 13.2338 19.0911 13.2596 19.1395C13.282 19.1813 13.3122 19.1844 13.7009 19.1844C14.0872 19.1844 14.1216 19.181 14.1646 19.1379C14.2094 19.0932 14.2111 19.0605 14.2111 18.2421C14.2111 17.7011 14.2024 17.3765 14.187 17.3479C14.1645 17.3058 14.1341 17.303 13.7136 17.303C13.2672 17.303 13.2641 17.3033 13.2502 17.3552ZM16.5337 18.2287V19.1554L16.6063 19.1699C16.7463 19.1979 17.4512 19.1864 17.4935 19.1554C17.5298 19.1287 17.5325 19.0515 17.5269 18.2205L17.5208 17.3146L17.0273 17.3083L16.5337 17.302V18.2287ZM17.812 17.3479C17.7966 17.3765 17.7879 17.7036 17.7879 18.2502C17.7879 19.0627 17.7902 19.1096 17.832 19.1474C17.871 19.1827 17.9259 19.1865 18.307 19.18C18.6216 19.1748 18.7461 19.1646 18.7681 19.1426C18.7917 19.119 18.7985 18.9262 18.7996 18.2599C18.8003 17.7911 18.7927 17.384 18.7827 17.3552C18.7647 17.3034 18.7609 17.303 18.3003 17.303C17.865 17.303 17.8345 17.3058 17.812 17.3479ZM7.13462 18.7508C7.11132 18.7805 7.07349 18.8929 7.05054 19.0005C7.02759 19.108 6.99809 19.243 6.98502 19.3005C6.97192 19.358 6.9554 19.4735 6.94827 19.5572C6.92714 19.806 6.90384 19.7983 7.62206 19.7787C7.95257 19.7697 8.24817 19.7527 8.27895 19.741C8.36402 19.7087 8.35174 19.5992 8.21856 19.2025C8.08777 18.8131 8.05112 18.7318 7.99705 18.711C7.97638 18.7031 7.78339 18.6966 7.5682 18.6966C7.18599 18.6966 7.17596 18.6979 7.13462 18.7508ZM24.0065 18.7373C23.9694 18.7786 23.9134 18.9358 23.839 19.2076C23.8162 19.2907 23.7826 19.4011 23.7642 19.4531C23.7458 19.5051 23.734 19.5939 23.7381 19.6505L23.7454 19.7535L24.3988 19.7596L25.0521 19.7658L25.0654 19.7151C25.0727 19.6872 25.0632 19.5642 25.0444 19.4418C25.0256 19.3194 25.0001 19.1408 24.9878 19.045C24.9755 18.9492 24.948 18.8316 24.9268 18.7837L24.8881 18.6966H24.4655C24.0924 18.6966 24.0387 18.7014 24.0065 18.7373ZM8.64483 18.7557C8.63078 18.7923 8.65105 18.9013 8.71804 19.1496C8.73873 19.2262 8.76941 19.3412 8.78625 19.4051C8.80307 19.4689 8.83124 19.563 8.84887 19.6141L8.88087 19.707L9.52958 19.7132C9.92556 19.717 10.187 19.7106 10.2008 19.6969C10.2219 19.6758 10.1646 19.4405 10.1241 19.3818C10.1153 19.3691 10.0896 19.3063 10.0671 19.2425C9.99833 19.0478 9.88397 18.8369 9.83946 18.8227C9.81629 18.8154 9.68515 18.8 9.54804 18.7886C9.41094 18.7772 9.2256 18.7574 9.13618 18.7446C8.8795 18.7079 8.66127 18.7128 8.64483 18.7557ZM22.9209 18.7343C22.3505 18.7733 22.1478 18.7997 22.0945 18.8416C22.0636 18.8659 22.0383 18.9004 22.0383 18.9182C22.0383 18.936 22.0237 18.9849 22.0058 19.0268C21.9879 19.0688 21.9553 19.1501 21.9333 19.2076C21.9114 19.2651 21.8845 19.333 21.8736 19.3586C21.8003 19.5305 21.7591 19.6607 21.7695 19.6878C21.7794 19.7136 21.9095 19.7182 22.4845 19.7132L23.1875 19.707L23.2275 19.5793C23.2494 19.509 23.2841 19.3888 23.3043 19.3121C23.3246 19.2355 23.3569 19.1205 23.3762 19.0566C23.3955 18.9928 23.4133 18.8935 23.4158 18.836L23.4203 18.7315L23.2228 18.7293C23.1143 18.7281 22.9784 18.7304 22.9209 18.7343ZM7.24731 18.8611C7.21519 18.9128 7.16567 19.2745 7.16332 19.4747L7.16195 19.5909H7.51035H7.85874V19.2076V18.8244L7.56841 18.818C7.29367 18.8119 7.27643 18.8142 7.24731 18.8611ZM24.1431 18.8314C24.1319 18.8495 24.1241 19.1418 24.1272 19.4307L24.1287 19.5724L24.4712 19.5853C24.7085 19.5943 24.8236 19.5902 24.8455 19.5721C24.8704 19.5516 24.8738 19.496 24.8617 19.3129C24.8531 19.1847 24.8372 19.0485 24.8263 19.0102C24.8153 18.9719 24.8 18.9118 24.7922 18.8766L24.7781 18.8128H24.4664C24.2949 18.8128 24.1494 18.8211 24.1431 18.8314ZM7.87156 20.1577C7.8366 20.223 7.83953 20.7934 7.875 20.8289C7.91495 20.8689 8.57559 20.8678 8.60855 20.8277C8.63124 20.8001 8.62587 20.7723 8.52256 20.3806C8.51246 20.3423 8.48433 20.2691 8.46004 20.218L8.41589 20.1251L8.15596 20.1186C7.91757 20.1125 7.894 20.1158 7.87156 20.1577ZM9.0007 20.129C8.99217 20.1375 8.98521 20.1683 8.98521 20.1975C8.98521 20.2603 9.11481 20.6804 9.15991 20.7639L9.19129 20.8219L9.89014 20.8281C10.5003 20.8335 10.5907 20.8297 10.6027 20.7986C10.6171 20.7611 10.597 20.7005 10.4947 20.4733C10.4602 20.3965 10.4237 20.3077 10.4136 20.2759C10.4035 20.2441 10.3799 20.1945 10.3611 20.1658C10.3271 20.1136 10.3257 20.1135 9.67159 20.1135C9.31112 20.1135 9.0092 20.1205 9.0007 20.129ZM21.6223 20.1914C21.5956 20.2346 21.5738 20.2763 21.5738 20.284C21.5738 20.2917 21.5483 20.3532 21.5171 20.4206C21.4219 20.6267 21.388 20.7206 21.388 20.7783V20.8335H22.1414C22.7188 20.8335 22.8993 20.8268 22.9135 20.8045C22.9774 20.7048 23.0689 20.3767 23.0705 20.2412L23.0719 20.1251L22.3714 20.119L21.6709 20.1128L21.6223 20.1914ZM23.6593 20.1766C23.6039 20.2391 23.474 20.6564 23.4825 20.7448L23.4899 20.8219H23.8035H24.117V20.4851V20.1483L23.9065 20.1417C23.7284 20.1361 23.6904 20.1415 23.6593 20.1766ZM6.87158 20.2471C6.85757 20.295 6.83098 20.4377 6.81249 20.5642C6.77394 20.8279 6.78416 20.857 6.91511 20.8564C7.0625 20.8558 7.06821 20.8439 7.07678 20.5197C7.08526 20.1985 7.07304 20.1599 6.96279 20.1599C6.90681 20.1599 6.89325 20.1729 6.87158 20.2471Z" fill="#9E445A"></path><path fill-rule="evenodd" clip-rule="evenodd" d="M29.1534 9.95407L29 8.99625L28.3962 9.75543L27.4381 9.90874L28.1976 10.5127L28.3508 11.4709L28.9547 10.7113L29.9128 10.558L29.1534 9.95407Z" fill="#9E445A"></path><path fill-rule="evenodd" clip-rule="evenodd" d="M3.20938 3.12409L2.36854 1.93662L2.05879 3.35829L0.87093 4.19926L2.29301 4.50899L3.13398 5.69714L3.4436 4.27479L4.63146 3.43382L3.20938 3.12409Z" fill="#9E445A"></path><mask id="mask0_179_3042" style="mask-type:alpha" maskUnits="userSpaceOnUse" x="0" y="0" width="32" height="22"><path fill-rule="evenodd" clip-rule="evenodd" d="M15.8574 0.0640014C15.7985 0.0983486 15.6599 0.178818 15.5495 0.242812C15.4391 0.306805 15.0353 0.547655 14.6523 0.778032C14.2693 1.00841 13.8644 1.25024 13.7525 1.31542C13.5727 1.42025 12.2105 2.24458 12.1207 2.30297C12.1016 2.31544 12.065 2.33622 12.0394 2.34918C12.0139 2.36215 11.9649 2.39093 11.9306 2.41313C11.814 2.48853 11.148 2.89513 10.9686 3.00036C10.771 3.11629 10.7688 3.11771 10.5878 3.23472C10.5176 3.28017 10.4444 3.32496 10.4252 3.33429C10.4061 3.34362 10.3695 3.36396 10.3439 3.37951C10.3184 3.39505 10.2139 3.4542 10.1117 3.51096C10.0095 3.56769 9.68784 3.75877 9.39694 3.93555C9.106 4.11232 8.8632 4.25697 8.85732 4.25697C8.85147 4.25697 8.77835 4.29885 8.69488 4.35005C8.6114 4.40124 8.53439 4.44313 8.52375 4.44313C8.51313 4.44313 8.46153 4.47427 8.40908 4.51231C8.26773 4.61494 7.9626 4.77601 7.94433 4.75772C7.92554 4.73892 7.90937 2.52327 7.92749 2.44974C7.93666 2.41255 7.964 2.39535 8.03252 2.38376C8.11425 2.36994 8.12818 2.35796 8.15085 2.28216C8.18676 2.16207 8.17039 1.66936 8.12881 1.61926C8.10024 1.58487 8.00894 1.58086 7.25284 1.58086C6.44208 1.58086 6.40778 1.58263 6.38469 1.62587C6.37147 1.65063 6.36065 1.81219 6.36065 1.98491C6.36065 2.33669 6.37433 2.37206 6.51044 2.37206C6.55266 2.37206 6.6009 2.38856 6.6176 2.40873C6.65202 2.45027 6.68152 3.48097 6.68424 4.73627C6.68603 5.55567 6.69827 5.50054 6.48839 5.61738C6.42452 5.65291 6.22594 5.76606 6.0471 5.86879C5.86826 5.97153 5.6749 6.082 5.61741 6.11427C5.55993 6.14655 5.4474 6.21308 5.36732 6.26214C5.28725 6.31119 5.21709 6.35131 5.21138 6.35131C5.20566 6.35131 5.12351 6.39843 5.02884 6.45602C4.93415 6.51362 4.85065 6.56074 4.84329 6.56074C4.81504 6.56074 4.36766 6.84148 4.33721 6.87829C4.29211 6.93281 4.29048 7.80041 4.33538 7.84529C4.37702 7.88692 4.86389 7.87331 5.04837 7.82533C5.19112 7.78821 5.40348 7.6891 5.54732 7.59244C5.5918 7.56256 5.64148 7.5381 5.65769 7.5381C5.68147 7.5381 5.68605 8.82796 5.68133 14.1993L5.67548 20.8604H4.79289C3.92316 20.8604 3.91041 20.8598 3.91814 20.8139C3.92244 20.7883 3.93933 20.7359 3.95563 20.6975C3.98627 20.6254 4.03727 20.4944 4.09376 20.3427C4.13874 20.2219 4.20062 19.9376 4.20062 19.8518C4.20062 19.8127 4.21049 19.7304 4.22255 19.669C4.2346 19.6076 4.25125 19.4552 4.25954 19.3304L4.27464 19.1035H4.34859C4.38926 19.1035 4.44577 19.0872 4.47415 19.0673C4.52051 19.0348 4.52579 19.0112 4.52579 18.8363C4.52579 18.6902 4.51666 18.6323 4.4893 18.6049C4.45794 18.5735 4.36601 18.5683 3.83897 18.5683H3.22512V18.506C3.22512 18.4178 3.26317 18.3035 3.35753 18.1082C3.45569 17.9049 3.54481 17.8261 3.85223 17.6705C3.97358 17.6092 4.13371 17.519 4.20808 17.4702C4.28242 17.4214 4.3521 17.3815 4.3629 17.3815C4.37372 17.3815 4.38603 17.3736 4.39031 17.3641C4.39456 17.3544 4.45778 17.3059 4.53078 17.256C4.65153 17.1736 4.80984 17.0197 5.11113 16.6917C5.23098 16.5612 5.32741 16.3958 5.30493 16.3593C5.24717 16.2657 4.8281 16.3103 4.53389 16.4414C4.49364 16.4593 4.45348 16.474 4.44463 16.474C4.43581 16.474 4.32764 16.5406 4.20429 16.6221C3.85506 16.8528 3.66795 17.0709 3.51278 17.4278C3.45415 17.5627 3.43323 17.5924 3.42038 17.5588C3.40522 17.5192 3.44586 17.0664 3.50627 16.6019C3.51961 16.4996 3.53614 16.154 3.54304 15.834C3.55222 15.4092 3.56432 15.2333 3.58787 15.182C3.61874 15.1149 3.82308 14.9644 4.087 14.8146C4.55793 14.5473 5.0496 14.0384 5.26761 13.5928C5.41679 13.2878 5.41349 13.2315 5.24779 13.2556C5.00712 13.2906 4.6998 13.4266 4.27766 13.6849C3.86598 13.9369 3.63104 14.2783 3.58459 14.6923C3.55447 14.9608 3.49638 15.0183 3.47134 14.8043C3.45608 14.6739 3.44756 14.6352 3.37029 14.3447C3.31115 14.1225 3.14713 13.7903 2.95235 13.4983C2.61704 12.9955 2.0401 12.4714 1.82194 12.4714C1.74336 12.4714 1.72776 12.5641 1.74794 12.9111C1.77751 13.42 1.91772 13.8302 2.20649 14.2527C2.37379 14.4975 2.56875 14.6837 2.86391 14.8806C3.15537 15.0751 3.24461 15.1534 3.25852 15.2268C3.26358 15.2536 3.28623 15.3698 3.30883 15.485C3.35514 15.7209 3.36236 16.2383 3.32151 16.3925C3.28825 16.5181 3.22849 16.9221 3.20101 17.207C3.16617 17.5683 3.07002 18.2409 3.05018 18.2621C3.03453 18.2789 2.97328 18.1315 2.9357 17.9865C2.87443 17.7503 2.82953 17.3796 2.81437 16.9851L2.80045 16.6236L2.93623 16.3102C3.07055 16.0003 3.07204 15.9945 3.07164 15.7758C3.07106 15.4422 2.96227 15.1468 2.83313 15.1282C2.76826 15.1188 2.59339 15.2906 2.54179 15.4143C2.42623 15.6914 2.4028 16.0498 2.48242 16.3227C2.57583 16.6429 2.65864 17.4048 2.60001 17.4048C2.58833 17.4048 2.54806 17.3547 2.5105 17.2936C2.35103 17.034 2.01534 16.7507 1.67949 16.5925C1.40579 16.4636 1.29389 16.4264 1.04186 16.3806C0.868876 16.3491 0.711867 16.3837 0.697908 16.4564C0.672777 16.5872 0.994645 16.9642 1.32058 17.1858C1.47162 17.2884 1.80264 17.4596 2.36575 17.7262C2.53261 17.8052 2.63924 17.9036 2.71089 18.0447C2.76966 18.1604 2.85987 18.4949 2.8437 18.537C2.83406 18.5622 2.69689 18.5683 2.13554 18.5683C1.44245 18.5683 1.43917 18.5685 1.40319 18.62C1.35177 18.6936 1.35333 18.9701 1.40547 19.0224C1.46019 19.0772 1.5537 19.1083 1.61627 19.0926C1.64579 19.0852 1.68985 19.0898 1.71421 19.1029C1.75437 19.1244 1.75869 19.1566 1.7602 19.4467C1.76183 19.7562 1.79462 20.0094 1.86943 20.2903C1.90084 20.4082 1.92924 20.4881 2.006 20.6743C2.0565 20.7967 2.0673 20.8717 2.03522 20.8769C2.01901 20.8796 1.55632 20.8822 1.00702 20.8828L0.00830068 20.8837L0.00161151 21.2095C-0.00205823 21.3887 0.000752237 21.5589 0.00788266 21.5876L0.0207964 21.64H15.9721C28.3477 21.64 31.9296 21.6337 31.9512 21.6121C31.99 21.5732 31.99 20.9621 31.9512 20.9233C31.9304 20.9024 31.6687 20.8953 30.9169 20.8953C30.0887 20.8953 29.9084 20.8897 29.8983 20.8636C29.8917 20.8462 29.9137 20.7546 29.9474 20.66C30.0885 20.2637 30.1575 19.9022 30.18 19.4409C30.1881 19.2746 30.2056 19.1253 30.2188 19.1093C30.232 19.0933 30.2913 19.0802 30.3505 19.0802C30.4864 19.0802 30.5186 19.035 30.5338 18.8229C30.5442 18.6769 30.5416 18.6667 30.4807 18.6188C30.4186 18.5698 30.3979 18.5683 29.7825 18.5683C29.3649 18.5683 29.1431 18.56 29.1332 18.5439C29.1085 18.5039 29.1925 18.171 29.2619 18.0331C29.3285 17.9009 29.4281 17.7771 29.4679 17.7771C29.4804 17.7771 29.5619 17.745 29.649 17.7058C29.8183 17.6296 29.843 17.6192 30.0049 17.5552C30.5167 17.3528 30.7948 17.1734 31.162 16.8088C31.3807 16.5916 31.401 16.5642 31.3942 16.4941C31.3878 16.4277 31.3759 16.415 31.3055 16.399C31.2608 16.3889 31.1302 16.3871 31.0152 16.3951C30.4701 16.433 29.8016 16.8408 29.4638 17.3414C29.4266 17.3967 29.3984 17.4195 29.3881 17.4028C29.3436 17.3306 29.4172 16.7231 29.5063 16.4274C29.577 16.1927 29.5922 16.0689 29.5777 15.8457C29.5544 15.4872 29.4425 15.2176 29.2826 15.1347C29.1807 15.0819 29.1494 15.0932 29.0759 15.2093C28.9806 15.3599 28.9365 15.53 28.9365 15.7469C28.9365 15.9608 28.9521 16.0171 29.0883 16.2931C29.1508 16.4199 29.1947 16.5458 29.2049 16.628C29.2219 16.7644 29.1849 17.2971 29.1428 17.5211C29.0689 17.9144 28.9813 18.2309 28.9463 18.2309C28.8972 18.2309 28.8548 17.8888 28.7963 17.0208C28.7834 16.8288 28.7626 16.5951 28.7501 16.5014C28.7376 16.4076 28.7274 16.0911 28.7274 15.7979C28.7274 15.1863 28.7409 15.1215 28.8983 14.9789C28.9512 14.9309 29.0036 14.8917 29.0147 14.8916C29.0719 14.8914 29.3381 14.7014 29.4707 14.566C29.9068 14.1207 30.1455 13.5189 30.1814 12.774C30.1925 12.5431 30.1886 12.4742 30.1627 12.4401C30.131 12.3985 30.1268 12.3987 30.0268 12.4458C29.97 12.4725 29.8662 12.5416 29.796 12.5993C29.7258 12.6569 29.6612 12.7041 29.6524 12.7041C29.617 12.7041 29.1122 13.2863 28.9967 13.4604C28.7173 13.8813 28.5573 14.297 28.5049 14.7379L28.4913 14.8519L28.4469 14.7845C28.4225 14.7474 28.4025 14.6886 28.4024 14.6539C28.4022 14.5729 28.3461 14.4072 28.2564 14.2224C28.1319 13.966 27.8858 13.7478 27.4567 13.5133C27.1164 13.3274 26.7335 13.1919 26.6448 13.226C26.5954 13.245 26.6086 13.3396 26.6842 13.5086C26.881 13.9479 27.2709 14.3453 27.9029 14.7505C28.0556 14.8484 28.0865 14.8673 28.1352 14.892C28.2997 14.9756 28.4178 15.0573 28.4426 15.1045C28.4584 15.1346 28.4714 15.2434 28.4716 15.3464C28.4721 15.5949 28.5139 16.441 28.5423 16.7765C28.6103 17.5786 28.6067 17.6092 28.4749 17.3523C28.3202 17.051 28.2027 16.9089 27.9377 16.7028C27.6676 16.4926 27.3477 16.353 27.041 16.3113C26.6214 16.2542 26.5985 16.2951 26.8641 16.6283C27.2114 17.0639 27.5656 17.3523 28.0395 17.5853C28.3549 17.7404 28.4752 17.8356 28.5719 18.0066C28.6973 18.2282 28.7893 18.5208 28.7429 18.5503C28.728 18.5598 28.4488 18.5677 28.1224 18.5679C27.6922 18.5682 27.5213 18.576 27.5011 18.5962C27.4837 18.6136 27.4732 18.6996 27.4732 18.8243C27.4732 19.0507 27.4893 19.0802 27.6126 19.0802C27.7381 19.0802 27.7519 19.108 27.7519 19.3601C27.7519 19.5828 27.7973 19.9773 27.8475 20.1904C27.862 20.2518 27.9153 20.4067 27.9661 20.5347C28.017 20.6626 28.0601 20.7935 28.062 20.8255L28.0655 20.8837L27.2293 20.8749C26.7695 20.87 26.3854 20.8616 26.3759 20.8561C26.3548 20.844 26.3522 7.5986 26.3732 7.57754C26.3813 7.5694 26.4153 7.58197 26.4486 7.60547C26.5357 7.66676 26.8184 7.80732 26.9274 7.84348C26.9897 7.86419 27.1197 7.8725 27.3222 7.86875C27.5733 7.8641 27.6291 7.85658 27.6532 7.82416C27.6741 7.79615 27.6823 7.65936 27.6823 7.33765C27.6823 6.89898 27.6811 6.88878 27.6265 6.82433C27.5958 6.78814 27.5305 6.73769 27.4813 6.71221C27.4322 6.68673 27.3261 6.62225 27.2456 6.56889C27.1651 6.51555 27.0345 6.43887 26.9553 6.39852C26.8761 6.35817 26.7908 6.3127 26.7657 6.29751C26.6601 6.23347 26.5486 6.16854 26.4397 6.10764C26.0262 5.87659 25.9161 5.81516 25.8125 5.75782C25.7487 5.72245 25.6076 5.63898 25.499 5.57233C25.3904 5.50568 25.2389 5.41663 25.1622 5.37444C25.0856 5.33222 24.9762 5.27191 24.9191 5.24038C24.862 5.20884 24.7713 5.15269 24.7175 5.1156C24.6637 5.07851 24.613 5.04816 24.6049 5.04816C24.5967 5.04816 24.5568 5.02343 24.5161 4.9932C24.4755 4.96294 24.369 4.89856 24.2796 4.85006C24.1902 4.80159 24.078 4.73731 24.0304 4.70725C23.9827 4.67716 23.9388 4.65256 23.9327 4.65256C23.9267 4.65256 23.8006 4.57926 23.6525 4.48967C23.5044 4.40008 23.3796 4.32678 23.375 4.32678C23.3657 4.32678 22.9104 4.05565 22.579 3.8528C22.4612 3.78074 22.3598 3.72175 22.3536 3.72175C22.3475 3.72175 22.1041 3.57686 21.8129 3.39978C21.3123 3.09537 21.1555 3.00369 20.9195 2.8774C20.8642 2.84782 20.6465 2.71825 20.4357 2.5895C20.2249 2.46074 19.9898 2.32119 19.9131 2.27937C19.8365 2.23756 19.7424 2.18043 19.7041 2.15243C19.6285 2.09719 19.2363 1.85885 18.7411 1.56718C18.5692 1.46593 18.4072 1.37038 18.3811 1.35488C18.3551 1.33939 18.3181 1.31905 18.2989 1.30969C18.2797 1.30034 18.0254 1.1481 17.7338 0.971363C17.4421 0.794647 17.1997 0.650045 17.195 0.650045C17.1904 0.650045 17.0543 0.568877 16.8928 0.469699C16.7312 0.37052 16.5817 0.278881 16.5605 0.266082C16.3622 0.146239 16.0617 -0.00122565 16.0184 7.68478e-06C15.9889 0.000868692 15.9164 0.0296775 15.8574 0.0640014ZM15.9676 1.42423C15.9308 1.43677 15.8211 1.49751 15.7237 1.55915C15.6263 1.62082 15.4055 1.75744 15.233 1.86278C15.0606 1.96813 14.8359 2.10845 14.7337 2.17461C14.6315 2.24077 14.4072 2.37771 14.2353 2.47892C14.0633 2.58012 13.9013 2.67562 13.8753 2.69112C13.8492 2.70662 13.8122 2.72689 13.793 2.73619C13.7643 2.75011 13.3453 3.00543 13.1304 3.13998C12.7583 3.3729 12.5325 3.50756 12.425 3.56067C12.3534 3.59599 12.1956 3.68772 12.0743 3.76452C11.5206 4.11485 11.4406 4.16342 11.0959 4.35831C10.9634 4.43324 10.8288 4.51268 10.7968 4.53486C10.7649 4.55704 10.6761 4.61 10.5994 4.65259C10.5228 4.69515 10.3753 4.78527 10.2717 4.85283C10.1681 4.92041 10.0427 4.99792 9.99299 5.0251C9.85024 5.10315 9.763 5.15528 9.39536 5.38223C9.06952 5.58336 8.9984 5.62592 8.77733 5.75209C8.72688 5.7809 8.56962 5.87775 8.42787 5.96734C8.28615 6.05694 8.12205 6.15765 8.06327 6.19116C8.00448 6.22467 7.92133 6.2801 7.87853 6.31433L7.80067 6.37656V12.0425V17.7085L7.44647 17.7021L7.09227 17.6957L7.07813 17.5095C7.07035 17.4071 7.06245 14.9839 7.06062 12.1246C7.05809 8.2323 7.05049 6.91783 7.0304 6.89358C7.01242 6.87187 6.98079 6.86621 6.93448 6.87641C6.82624 6.90021 6.46974 7.12431 6.43711 7.18904C6.41372 7.23542 6.40775 8.42356 6.40766 13.0532C6.40759 16.7788 6.39816 19.2021 6.38135 19.8162C6.36246 20.5062 6.36221 20.7854 6.38042 20.8169C6.40357 20.8568 6.40585 20.8556 6.40766 20.8023C6.41054 20.7164 6.44589 20.4283 6.48763 20.1507C6.50784 20.0163 6.53429 19.8283 6.54644 19.7328C6.55858 19.6374 6.57879 19.5065 6.59138 19.4419C6.64696 19.1567 6.66851 18.8826 6.65411 18.6442C6.64297 18.4594 6.64773 18.3614 6.67228 18.2703C6.71318 18.1184 6.74026 18.0845 6.8628 18.0319C6.94895 17.9949 7.06208 17.9897 7.93153 17.9827C8.63149 17.9771 8.93645 17.9827 9.02004 18.0028C9.24629 18.0572 9.51007 18.1029 9.60123 18.1036C9.71272 18.1045 10.0829 18.1789 10.1853 18.221C10.2745 18.2577 10.3194 18.2302 10.3541 18.1178C10.3808 18.031 10.4999 17.6999 10.5379 17.6069C10.5526 17.5709 10.5646 17.5284 10.5646 17.5126C10.5646 17.4968 10.5758 17.4727 10.5895 17.4589C10.6032 17.4452 10.611 17.3986 10.6069 17.3554L10.5994 17.2768L9.90145 17.2706L9.20348 17.2645L9.16402 17.3541C9.14231 17.4034 9.12456 17.4534 9.12456 17.4653C9.12456 17.4987 9.02901 17.6703 8.99972 17.6895C8.98534 17.6989 8.88812 17.7067 8.78363 17.7069C8.59477 17.7073 8.52068 17.6795 8.52068 17.6083C8.52068 17.5714 8.63941 17.1168 8.68324 16.9859C8.69395 16.9539 8.7358 16.7864 8.77624 16.6136C9.02051 15.57 9.07288 15.4163 9.24227 15.2464C9.29653 15.192 9.398 15.1204 9.46775 15.0873L9.59459 15.0272L10.3928 15.0278L11.1909 15.0284L11.3133 15.0897C11.4771 15.1718 11.5299 15.2254 11.5614 15.3412C11.5996 15.4817 11.5789 15.5727 11.2691 16.6252C11.2503 16.6892 11.2262 16.773 11.2156 16.8114C11.205 16.8498 11.1861 16.9126 11.1735 16.951C11.161 16.9894 11.1336 17.0784 11.1126 17.1488C11.0599 17.3259 10.8068 18.1016 10.7786 18.1727C10.7659 18.2047 10.7374 18.278 10.7153 18.3356C10.6161 18.5943 10.5434 18.7524 10.4781 18.8512L10.4201 18.9391L10.5311 19.2831C10.5921 19.4723 10.6508 19.637 10.6614 19.6492C10.672 19.6614 10.6807 19.686 10.6807 19.7039C10.6807 19.7218 10.6954 19.7694 10.7135 19.8098C10.7315 19.8501 10.7794 19.9773 10.82 20.0925C10.8606 20.2077 10.9033 20.3201 10.915 20.3423C10.9267 20.3646 10.9362 20.3944 10.9362 20.4086C10.9362 20.4229 10.9506 20.4675 10.9682 20.5079C10.9858 20.5482 11.0186 20.6336 11.0412 20.6975C11.0637 20.7615 11.0924 20.827 11.1049 20.843C11.123 20.8661 12.1276 20.8721 15.9891 20.8721C20.3775 20.8721 20.854 20.8685 20.887 20.8355C20.907 20.8154 20.9234 20.7794 20.9234 20.7554C20.9234 20.7315 20.9339 20.7055 20.9467 20.6975C20.9594 20.6896 20.97 20.6655 20.97 20.6438C20.9701 20.6222 20.984 20.578 21.0008 20.5457C21.0177 20.5133 21.0376 20.4662 21.0452 20.4409C21.0527 20.4157 21.0811 20.3374 21.1084 20.267C21.1356 20.1966 21.179 20.0762 21.2049 19.9994C21.2308 19.9226 21.2613 19.8389 21.2727 19.8133C21.3003 19.7515 21.4092 19.4389 21.4389 19.3362C21.4519 19.2914 21.4697 19.2443 21.4785 19.2315C21.4873 19.2187 21.5135 19.1529 21.5368 19.0852L21.579 18.9622L21.477 18.7827C21.3323 18.5283 21.241 18.3163 21.179 18.0913C21.1684 18.0529 21.1482 17.99 21.1342 17.9516C21.1011 17.8616 20.9333 17.3348 20.8895 17.1837C20.7892 16.8374 20.7414 16.6689 20.6784 16.4391C20.6573 16.3623 20.631 16.268 20.6199 16.2296C20.6089 16.1912 20.5828 16.097 20.5621 16.0202C20.5414 15.9434 20.5096 15.8381 20.4915 15.7862C20.4734 15.7343 20.4563 15.5959 20.4537 15.4787C20.4489 15.2711 20.4506 15.2635 20.5177 15.1928C20.5556 15.1529 20.6285 15.0996 20.6796 15.0743C20.7664 15.0314 20.8226 15.0283 21.5341 15.0282C22.4051 15.0281 22.4477 15.035 22.6375 15.2059C22.7992 15.3516 22.9364 15.6352 23.0484 16.0551C23.0706 16.1383 23.098 16.2325 23.1093 16.2645C23.1301 16.323 23.2292 16.6846 23.2719 16.8579C23.2846 16.9091 23.3195 17.0295 23.3496 17.1255C23.436 17.401 23.4783 17.5569 23.4783 17.6C23.4783 17.6599 23.3383 17.7073 23.1612 17.7073C22.9619 17.7073 22.9167 17.6681 22.847 17.4356L22.7957 17.2645L22.0979 17.2706C21.4368 17.2765 21.3998 17.2791 21.3918 17.3204C21.3843 17.3593 21.4306 17.546 21.479 17.6724C21.4888 17.698 21.5149 17.7765 21.5369 17.8469C21.559 17.9173 21.5995 18.0307 21.6268 18.0988C21.6681 18.2015 21.6848 18.2208 21.7239 18.2112C21.7499 18.2048 21.8352 18.1835 21.9135 18.1639C21.9917 18.1441 22.1276 18.1216 22.2154 18.1138C22.3032 18.1059 22.4744 18.0851 22.5957 18.0674C23.1691 17.9839 23.2994 17.9763 24.1635 17.9756C25.1113 17.9749 25.1627 17.9803 25.2691 18.0937C25.3228 18.151 25.3253 18.1695 25.3402 18.6225C25.3486 18.8807 25.3665 19.2594 25.3799 19.4642C25.3933 19.669 25.4047 19.9772 25.4052 20.1491C25.4064 20.5798 25.444 20.8644 25.5018 20.8795C25.5258 20.8858 25.5533 20.8789 25.5628 20.8641C25.5724 20.8493 25.5831 17.7575 25.5865 13.9935L25.5927 7.14976L25.5441 7.08796C25.5175 7.05396 25.4851 7.02615 25.4722 7.02615C25.4593 7.02615 25.3393 6.96302 25.2056 6.88585C25.0719 6.80869 24.9526 6.75172 24.9404 6.75924C24.9266 6.76783 24.9183 8.7927 24.9183 12.2033C24.9183 15.19 24.912 17.6502 24.9042 17.6705C24.8922 17.7019 24.8363 17.7073 24.5226 17.7073C24.166 17.7073 24.1545 17.7058 24.139 17.6569C24.1303 17.6291 24.1269 15.054 24.1317 11.9343C24.1364 8.81458 24.135 6.25718 24.1287 6.25117C24.1223 6.24517 23.8087 6.05414 23.4319 5.82667C23.055 5.59923 22.6393 5.34672 22.508 5.26555C22.3767 5.18439 22.2649 5.11797 22.2595 5.11797C22.2542 5.11797 22.1023 5.02896 21.9222 4.92017C21.742 4.81138 21.5886 4.72237 21.5814 4.72237C21.5741 4.72237 21.4378 4.64121 21.2785 4.54203C21.1192 4.44285 20.9454 4.33664 20.8923 4.30602C20.8392 4.27542 20.7434 4.21682 20.6796 4.1758C20.6157 4.1348 20.5269 4.08016 20.4821 4.0544C20.4374 4.02864 20.15 3.85539 19.8434 3.66941C19.5368 3.48341 19.1606 3.25836 19.0073 3.1693C18.854 3.08023 18.4172 2.81729 18.0366 2.58498C17.6561 2.3527 17.34 2.16262 17.3343 2.16262C17.3286 2.16262 17.0547 1.99908 16.7256 1.79919C16.3965 1.59929 16.1063 1.42802 16.0808 1.41857C16.0552 1.40913 16.0043 1.41166 15.9676 1.42423ZM15.6859 3.67416C15.2073 3.77171 14.8577 3.96197 14.522 4.30739C14.204 4.63467 14.0383 4.94794 13.9453 5.39722C13.8676 5.77283 13.9202 6.27926 14.0681 6.57792C14.0792 6.60046 14.1236 6.68992 14.1668 6.77669C14.3852 7.21613 14.83 7.60286 15.2911 7.75435C15.6484 7.87173 15.6741 7.87557 16.0924 7.87422C16.4906 7.87296 16.5028 7.87145 16.6924 7.79952C17.0997 7.64501 17.4053 7.42012 17.6414 7.10094C17.7793 6.91455 17.9723 6.55627 17.9732 6.48479C17.9735 6.46221 17.9834 6.42556 17.9952 6.40334C18.0884 6.22804 18.1222 5.60156 18.0534 5.32347C17.9606 4.9484 17.7968 4.63686 17.5186 4.30642C17.4363 4.20866 17.1725 4.00825 17.0095 3.91957C16.9203 3.87105 16.8368 3.82411 16.824 3.81527C16.8113 3.80643 16.7381 3.78148 16.6614 3.75986C16.5848 3.73822 16.4907 3.70902 16.4524 3.69494C16.3663 3.66336 15.8126 3.64833 15.6859 3.67416ZM15.6395 4.18539C15.4538 4.21671 15.1009 4.41853 14.8879 4.61535C14.6397 4.84461 14.4099 5.29634 14.4245 5.52656L14.4317 5.64156L15.1386 5.64773C15.6885 5.65252 15.8495 5.64735 15.864 5.62445C15.8855 5.59048 15.8905 4.25604 15.8693 4.2007C15.8544 4.16193 15.8 4.1583 15.6395 4.18539ZM16.1479 4.22385C16.1222 4.32654 16.1589 5.58643 16.1887 5.62236C16.2088 5.64668 16.3585 5.65319 16.8973 5.65319C17.4814 5.65319 17.5823 5.64817 17.5936 5.61847C17.6082 5.5805 17.5649 5.30041 17.5349 5.23819C17.5246 5.21687 17.477 5.11776 17.4292 5.01796C17.2921 4.73224 17.0421 4.48686 16.7311 4.33273C16.4945 4.21548 16.4294 4.19199 16.2946 4.1751C16.1659 4.159 16.164 4.15965 16.1479 4.22385ZM14.408 5.95645C14.3876 5.98964 14.4177 6.20121 14.4592 6.3164C14.5605 6.59702 14.6646 6.75928 14.8846 6.97961C15.1181 7.21348 15.248 7.29641 15.5541 7.40704C15.6473 7.44071 15.7544 7.46829 15.7922 7.46829H15.8608L15.8547 6.70618L15.8485 5.94407L15.1359 5.93793C14.6525 5.93374 14.4184 5.9397 14.408 5.95645ZM16.1667 5.96036C16.1463 5.98087 16.1389 6.17841 16.1389 6.7042C16.1389 7.53138 16.1282 7.49493 16.3502 7.42899C16.6073 7.35264 16.7068 7.30256 16.96 7.12198C17.2557 6.91115 17.4125 6.69296 17.5307 6.32804C17.6046 6.10013 17.624 5.99373 17.5975 5.96181C17.5633 5.92055 16.2078 5.9192 16.1667 5.96036ZM13.3297 9.46373C12.7439 9.46859 12.5483 9.47727 12.5345 9.49896C12.5245 9.51479 12.5161 11.9637 12.5159 14.9411C12.5156 19.2438 12.5215 20.3593 12.5446 20.3783C12.5642 20.3945 13.7014 20.4022 16.0409 20.4021C19.0597 20.4019 19.5125 20.3975 19.5422 20.3677C19.572 20.3378 19.5763 19.6507 19.5763 14.9178C19.5763 10.7366 19.57 9.49575 19.5485 9.4742C19.527 9.45275 18.8942 9.44756 16.8136 9.45177C15.3247 9.4548 13.757 9.46017 13.3297 9.46373ZM13.2497 10.4837C13.2314 10.5316 13.2319 12.3272 13.2502 12.3958C13.2641 12.4478 13.2672 12.4482 13.7136 12.4482C14.1341 12.4482 14.1645 12.4453 14.187 12.4032C14.2024 12.3743 14.2111 12.0307 14.2111 11.4475C14.2111 10.8643 14.2024 10.5207 14.187 10.4919C14.1645 10.4498 14.1341 10.4469 13.7134 10.4469C13.3248 10.4469 13.2619 10.4519 13.2497 10.4837ZM14.4396 10.5923C14.4325 10.8715 14.4487 12.4134 14.459 12.4307C14.4646 12.4403 14.6826 12.4482 14.9433 12.4482C15.3881 12.4482 15.4187 12.4454 15.4413 12.4032C15.4567 12.3742 15.4653 12.0168 15.4653 11.4025V10.4469H14.9543H14.4433L14.4396 10.5923ZM16.548 10.4833C16.5401 10.5038 16.5337 10.9382 16.5337 11.4486C16.5337 12.3424 16.5354 12.3776 16.5786 12.4008C16.6506 12.4394 17.4739 12.4326 17.5066 12.3931C17.5255 12.3703 17.5312 12.0929 17.5269 11.4099L17.5208 10.4585L17.0415 10.4523C16.6197 10.4467 16.5606 10.4504 16.548 10.4833ZM17.8025 10.4993C17.7949 10.5281 17.7884 10.9623 17.7882 11.4642C17.7879 12.3427 17.7896 12.3776 17.8328 12.4008C17.8893 12.4311 18.7154 12.4325 18.7629 12.4024C18.7922 12.3838 18.7973 12.2464 18.7977 11.4589C18.798 10.952 18.7907 10.5169 18.7816 10.4921C18.7658 10.4494 18.7388 10.4469 18.2907 10.4469C17.8186 10.4469 17.8165 10.4471 17.8025 10.4993ZM13.2511 12.7429C13.2426 12.7515 13.2356 13.1996 13.2356 13.7389C13.2356 14.4705 13.2427 14.7265 13.2635 14.7473C13.2992 14.7831 14.1002 14.7865 14.1662 14.7511C14.2095 14.7279 14.2111 14.692 14.2111 13.7414C14.2111 12.864 14.207 12.7541 14.1743 12.7415C14.1242 12.7222 13.2704 12.7235 13.2511 12.7429ZM14.4399 12.9078C14.428 13.5184 14.4514 14.7419 14.4752 14.7574C14.514 14.7827 15.3782 14.7782 15.4188 14.7524C15.4491 14.7332 15.4526 14.602 15.4451 13.7463C15.439 13.0486 15.4289 12.7573 15.4103 12.7452C15.3958 12.7358 15.1724 12.728 14.9137 12.7278L14.4433 12.7274L14.4399 12.9078ZM16.5393 13.745L16.5453 14.7636L16.9866 14.7702C17.2293 14.7738 17.4515 14.771 17.4804 14.7639L17.5329 14.7509L17.5269 13.745L17.5208 12.739L17.027 12.7328L16.5332 12.7265L16.5393 13.745ZM17.8169 12.7428C17.7944 12.752 17.7879 12.9736 17.7879 13.7408C17.7879 14.692 17.7895 14.7279 17.8328 14.7511C17.8897 14.7816 18.7156 14.7827 18.7634 14.7524C18.7934 14.7334 18.7986 14.5951 18.8007 13.7579C18.8022 13.1552 18.7945 12.7745 18.7805 12.7565C18.7636 12.7349 18.6408 12.7279 18.3019 12.7293C18.0511 12.7303 17.8329 12.7364 17.8169 12.7428ZM15.7392 14.1131C15.6322 14.1833 15.6047 14.2334 15.6047 14.3579C15.6047 14.5957 15.8274 14.7484 16.0249 14.6461C16.2416 14.5338 16.2378 14.1997 16.0186 14.0902C15.9186 14.0402 15.8405 14.0466 15.7392 14.1131ZM27.0668 14.93C27.0029 14.9484 26.867 14.9886 26.7648 15.0191C26.6626 15.0497 26.545 15.0815 26.5035 15.0897C26.4457 15.1012 26.428 15.1167 26.428 15.1561C26.428 15.1938 26.4696 15.2349 26.584 15.3102C26.7911 15.4466 26.9738 15.5186 27.241 15.5692C27.5149 15.621 27.6774 15.623 27.8956 15.5775C28.0697 15.5411 28.3703 15.4365 28.3894 15.4056C28.4323 15.3359 28.2332 15.1692 27.9726 15.0565C27.9087 15.0289 27.8392 14.9967 27.8181 14.9851C27.6583 14.8967 27.2783 14.8688 27.0668 14.93ZM4.34297 15.0329C4.01655 15.1173 3.66642 15.322 3.66642 15.4283C3.66642 15.4748 3.8795 15.5734 4.11933 15.6379C4.33175 15.6951 4.75895 15.6994 4.90275 15.6458C5.37779 15.469 5.48981 15.413 5.56618 15.3144L5.61946 15.2457L5.54021 15.1966C5.49662 15.1696 5.44375 15.1475 5.42273 15.1475C5.40171 15.1475 5.36636 15.1376 5.34418 15.1255C5.2212 15.0583 4.82013 14.9823 4.61121 14.9866C4.55784 14.9877 4.43713 15.0086 4.34297 15.0329ZM13.2515 15.0462C13.2319 15.0659 13.2301 16.9445 13.2497 16.9956C13.2619 17.0274 13.3247 17.0324 13.7114 17.0324H14.159L14.1854 16.9685C14.2039 16.9234 14.2099 16.6283 14.2056 15.9736L14.1995 15.0428L13.7335 15.0365C13.4772 15.0331 13.2603 15.0374 13.2515 15.0462ZM14.4584 15.049C14.4402 15.0784 14.4314 15.6299 14.4375 16.3518L14.4433 17.0324H14.9402C15.3719 17.0324 15.439 17.0276 15.4512 16.9956C15.4765 16.9295 15.4672 15.1247 15.4413 15.0762C15.4187 15.034 15.3881 15.0312 14.9433 15.0312C14.6826 15.0312 14.4644 15.0392 14.4584 15.049ZM16.5702 15.0677C16.5382 15.0998 16.5337 15.2196 16.5337 16.0309C16.5337 17.0971 16.5198 17.031 16.7547 17.0782C16.8594 17.0993 16.9396 17.1 17.0757 17.081C17.1754 17.0671 17.3065 17.0557 17.3669 17.0557C17.4273 17.0557 17.4892 17.0432 17.5046 17.0278C17.5253 17.007 17.5324 16.7532 17.5324 16.0297C17.5324 15.1664 17.5284 15.0579 17.4957 15.0453C17.4755 15.0375 17.2672 15.0312 17.0328 15.0312C16.6764 15.0312 16.6007 15.0372 16.5702 15.0677ZM17.8038 15.0462C17.7951 15.055 17.7879 15.4929 17.7879 16.0194C17.7879 16.7329 17.795 16.9837 17.8158 17.0045C17.8356 17.0244 17.977 17.0324 18.3043 17.0324C18.7214 17.0324 18.7664 17.0286 18.7808 16.9917C18.7895 16.9693 18.797 16.5217 18.7975 15.9969L18.7983 15.0428L18.309 15.0366C18.0399 15.0331 17.8126 15.0375 17.8038 15.0462ZM14.4865 17.3272C14.4343 17.3412 14.4275 17.5005 14.4394 18.433L14.4491 19.1956L14.5221 19.2093C14.5622 19.2168 14.7808 19.2197 15.0078 19.2156C15.3438 19.2096 15.4247 19.2017 15.4426 19.1733C15.4554 19.153 15.4647 18.7677 15.4649 18.2491C15.4653 17.3936 15.4636 17.359 15.4204 17.3358C15.3771 17.3126 14.5693 17.3052 14.4865 17.3272ZM13.2502 17.3873C13.2251 17.4812 13.2338 19.1264 13.2596 19.1749C13.282 19.2168 13.3122 19.2199 13.7009 19.2199C14.0872 19.2199 14.1216 19.2164 14.1646 19.1733C14.2094 19.1285 14.2111 19.0958 14.2111 18.2759C14.2111 17.7338 14.2024 17.4086 14.187 17.38C14.1645 17.3379 14.1341 17.335 13.7136 17.335C13.2672 17.335 13.2641 17.3353 13.2502 17.3873ZM16.5337 18.2624V19.1908L16.6063 19.2053C16.7463 19.2334 17.4512 19.2218 17.4935 19.1908C17.5298 19.1641 17.5325 19.0867 17.5269 18.2541L17.5208 17.3466L17.0273 17.3403L16.5337 17.334V18.2624ZM17.812 17.38C17.7966 17.4087 17.7879 17.7363 17.7879 18.2839C17.7879 19.098 17.7902 19.1449 17.832 19.1828C17.871 19.2182 17.9259 19.222 18.307 19.2155C18.6216 19.2102 18.7461 19.2001 18.7681 19.178C18.7917 19.1543 18.7985 18.9612 18.7996 18.2937C18.8003 17.824 18.7927 17.4161 18.7827 17.3873C18.7647 17.3354 18.7609 17.335 18.3003 17.335C17.865 17.335 17.8345 17.3378 17.812 17.38ZM7.13462 18.7854C7.11132 18.8153 7.07348 18.9279 7.05054 19.0356C7.02759 19.1434 6.99809 19.2786 6.98502 19.3362C6.97192 19.3938 6.9554 19.5095 6.94827 19.5934C6.92714 19.8426 6.90384 19.8349 7.62206 19.8153C7.95257 19.8062 8.24817 19.7893 8.27894 19.7775C8.36402 19.7451 8.35174 19.6354 8.21856 19.238C8.08777 18.8479 8.05112 18.7664 7.99705 18.7456C7.97638 18.7377 7.78339 18.7312 7.5682 18.7312C7.18599 18.7312 7.17596 18.7324 7.13462 18.7854ZM24.0065 18.7719C23.9694 18.8133 23.9134 18.9709 23.839 19.2431C23.8162 19.3263 23.7826 19.437 23.7642 19.4891C23.7458 19.5411 23.734 19.6302 23.7381 19.6869L23.7454 19.79L24.3987 19.7962L25.0521 19.8024L25.0654 19.7515C25.0727 19.7236 25.0632 19.6004 25.0444 19.4778C25.0256 19.3551 25.0001 19.1762 24.9878 19.0802C24.9755 18.9843 24.948 18.8665 24.9268 18.8185L24.8881 18.7312H24.4655C24.0924 18.7312 24.0387 18.736 24.0065 18.7719ZM8.64483 18.7904C8.63077 18.827 8.65105 18.9363 8.71804 19.185C8.73873 19.2618 8.76941 19.3769 8.78625 19.4409C8.80307 19.5049 8.83124 19.5992 8.84887 19.6504L8.88087 19.7435L9.52958 19.7496C9.92556 19.7534 10.187 19.7471 10.2008 19.7333C10.2219 19.7122 10.1646 19.4765 10.1241 19.4177C10.1153 19.4049 10.0896 19.342 10.0671 19.278C9.99833 19.083 9.88396 18.8717 9.83946 18.8575C9.81628 18.8502 9.68515 18.8348 9.54804 18.8234C9.41094 18.8119 9.2256 18.7921 9.13618 18.7793C8.8795 18.7425 8.66127 18.7474 8.64483 18.7904ZM22.9209 18.7689C22.3505 18.8081 22.1478 18.8344 22.0945 18.8765C22.0636 18.9008 22.0383 18.9353 22.0383 18.9532C22.0383 18.971 22.0237 19.02 22.0058 19.062C21.9879 19.104 21.9553 19.1855 21.9333 19.2431C21.9114 19.3007 21.8845 19.3688 21.8736 19.3944C21.8003 19.5666 21.7591 19.6971 21.7695 19.7242C21.7794 19.75 21.9095 19.7547 22.4845 19.7496L23.1875 19.7435L23.2275 19.6155C23.2494 19.5451 23.2841 19.4247 23.3043 19.3479C23.3246 19.2711 23.3569 19.1559 23.3762 19.0919C23.3955 19.0279 23.4133 18.9284 23.4157 18.8708L23.4203 18.7661L23.2228 18.7639C23.1142 18.7627 22.9784 18.765 22.9209 18.7689ZM7.24731 18.896C7.21519 18.9478 7.16567 19.3101 7.16332 19.5108L7.16195 19.6271H7.51035H7.85874V19.2431V18.8592L7.56841 18.8528C7.29367 18.8467 7.27643 18.849 7.24731 18.896ZM24.1431 18.8662C24.1319 18.8844 24.1241 19.1772 24.1272 19.4666L24.1287 19.6086L24.4712 19.6216C24.7085 19.6305 24.8236 19.6265 24.8455 19.6083C24.8704 19.5877 24.8738 19.5321 24.8617 19.3486C24.8531 19.2202 24.8372 19.0837 24.8263 19.0453C24.8153 19.0069 24.8 18.9467 24.7922 18.9115L24.7781 18.8475H24.4664C24.2949 18.8475 24.1494 18.8559 24.1431 18.8662ZM7.87156 20.195C7.8366 20.2604 7.83953 20.8319 7.875 20.8674C7.91495 20.9074 8.57559 20.9064 8.60855 20.8663C8.63124 20.8386 8.62587 20.8107 8.52256 20.4183C8.51246 20.3799 8.48433 20.3066 8.46004 20.2554L8.41589 20.1623L8.15596 20.1558C7.91757 20.1497 7.89399 20.153 7.87156 20.195ZM9.0007 20.1662C8.99217 20.1747 8.98521 20.2056 8.98521 20.2349C8.98521 20.2978 9.11481 20.7186 9.15991 20.8023L9.19129 20.8604L9.89014 20.8666C10.5003 20.872 10.5907 20.8682 10.6027 20.8371C10.6171 20.7994 10.597 20.7387 10.4947 20.5112C10.4602 20.4343 10.4237 20.3453 10.4136 20.3134C10.4035 20.2815 10.3799 20.2318 10.3611 20.203C10.3271 20.1508 10.3257 20.1507 9.67158 20.1507C9.31111 20.1507 9.0092 20.1577 9.0007 20.1662ZM21.6223 20.2287C21.5956 20.272 21.5738 20.3138 21.5738 20.3215C21.5738 20.3292 21.5483 20.3908 21.5171 20.4584C21.4219 20.6649 21.388 20.7589 21.388 20.8167V20.8721H22.1414C22.7188 20.8721 22.8993 20.8653 22.9135 20.843C22.9774 20.743 23.0689 20.4144 23.0705 20.2787L23.0719 20.1623L22.3714 20.1562L21.6709 20.15L21.6223 20.2287ZM23.6593 20.2139C23.6039 20.2765 23.474 20.6946 23.4825 20.7831L23.4899 20.8604H23.8035H24.117V20.523V20.1856L23.9065 20.179C23.7283 20.1734 23.6904 20.1787 23.6593 20.2139ZM6.87158 20.2845C6.85757 20.3325 6.83098 20.4755 6.81249 20.6022C6.77394 20.8664 6.78416 20.8955 6.91511 20.895C7.0625 20.8944 7.06821 20.8824 7.07678 20.5577C7.08526 20.2359 7.07304 20.1972 6.96279 20.1972C6.90681 20.1972 6.89325 20.2102 6.87158 20.2845Z" fill="#313131"></path></mask><g mask="url(#mask0_179_3042)"><path d="M11.9932 14.9775L11.1934 20.8936H8.10254L7.99609 20.1475L6.98242 20.2012L6.92871 20.8936H6.39648L6.55664 17.8555H8.15527L8.63477 15.0303L9.96777 14.5508L11.9932 14.9775ZM7.03613 19.5078V19.668L7.19531 19.7217H8.04883L7.94238 18.8145H7.19531L7.03613 19.5078Z" fill="#9E445A"></path><path d="M20.041 14.9775L20.8408 20.8936H23.9307L24.0381 20.1475L25.0508 20.2012L25.1045 20.8936H25.6377L25.4775 17.8555H23.8789L23.3994 15.0303L22.0664 14.5508L20.041 14.9775ZM24.998 19.5078V19.668L24.8379 19.7217H23.9844L24.0918 18.8145H24.8379L24.998 19.5078Z" fill="#9E445A"></path><rect x="0.639648" y="11.8325" width="5.01025" height="6.71586" fill="#9E445A"></rect><rect x="26.437" y="11.8325" width="5.01025" height="6.71586" fill="#9E445A"></rect><path d="M1.2793 18.5483H4.69053V20.8676H1.2793V18.5483Z" fill="#9E445A"></path><path d="M27.29 18.5483H30.7013V20.8936L27.29 20.8676V18.5483Z" fill="#9E445A"></path></g></svg> 