<?xml version="1.0" encoding="UTF-8"?> <svg xmlns="http://www.w3.org/2000/svg" width="21" height="18" viewBox="0 0 21 18" fill="none"><path d="M10.5 0C10.1064 -5.86467e-09 9.71671 0.0775196 9.3531 0.228133C8.98948 0.378746 8.6591 0.599504 8.3808 0.877801C8.1025 1.1561 7.88175 1.48648 7.73113 1.8501C7.58052 2.21371 7.503 2.60343 7.503 2.997C7.503 3.39057 7.58052 3.78029 7.73113 4.1439C7.88175 4.50752 8.1025 4.8379 8.3808 5.1162C8.6591 5.3945 8.98948 5.61525 9.3531 5.76587C9.71671 5.91648 10.1064 5.994 10.5 5.994C11.2949 5.994 12.0572 5.67825 12.6192 5.1162C13.1812 4.55415 13.497 3.79185 13.497 2.997C13.497 2.20215 13.1812 1.43985 12.6192 0.877801C12.0572 0.315754 11.2949 0 10.5 0ZM17.25 1.497C16.6533 1.497 16.081 1.73405 15.659 2.15601C15.2371 2.57797 15 3.15026 15 3.747C15 4.34374 15.2371 4.91603 15.659 5.33799C16.081 5.75995 16.6533 5.997 17.25 5.997C17.8467 5.997 18.419 5.75995 18.841 5.33799C19.2629 4.91603 19.5 4.34374 19.5 3.747C19.5 3.15026 19.2629 2.57797 18.841 2.15601C18.419 1.73405 17.8467 1.497 17.25 1.497ZM3.75 1.497C3.15326 1.497 2.58097 1.73405 2.15901 2.15601C1.73705 2.57797 1.5 3.15026 1.5 3.747C1.5 4.34374 1.73705 4.91603 2.15901 5.33799C2.58097 5.75995 3.15326 5.997 3.75 5.997C4.34674 5.997 4.91903 5.75995 5.34099 5.33799C5.76295 4.91603 6 4.34374 6 3.747C6 3.15026 5.76295 2.57797 5.34099 2.15601C4.91903 1.73405 4.34674 1.497 3.75 1.497ZM6 8.9865C6.00277 8.5905 6.16203 8.21166 6.44304 7.93262C6.72404 7.65358 7.10399 7.49699 7.5 7.497H13.5C13.8978 7.497 14.2794 7.65504 14.5607 7.93634C14.842 8.21764 15 8.59918 15 8.997V13.497C15.0004 13.9691 14.9265 14.4384 14.781 14.8875C14.4489 15.9056 13.7647 16.7719 12.8513 17.3308C11.9379 17.8898 10.8551 18.1049 9.79744 17.9374C8.73976 17.7699 7.77642 17.2309 7.08042 16.417C6.38442 15.6032 6.00135 14.5679 6 13.497V8.9865ZM4.5 8.997C4.5 8.4495 4.6455 7.938 4.902 7.497H1.5C1.10218 7.497 0.720645 7.65504 0.43934 7.93634C0.158035 8.21764 2.0762e-07 8.59918 2.0762e-07 8.997V12.747C-0.000204072 13.361 0.150339 13.9656 0.438409 14.5078C0.726479 15.0499 1.14326 15.5131 1.65216 15.8566C2.16106 16.2 2.74651 16.4133 3.35708 16.4776C3.96766 16.5419 4.5847 16.4554 5.154 16.2255C4.72319 15.38 4.49906 14.4444 4.5 13.4955V8.997ZM16.5 8.997V13.497C16.5 14.4795 16.2645 15.4065 15.846 16.2255C16.4153 16.4554 17.0323 16.5419 17.6429 16.4776C18.2535 16.4133 18.8389 16.2 19.3478 15.8566C19.8567 15.5131 20.2735 15.0499 20.5616 14.5078C20.8497 13.9656 21.0002 13.361 21 12.747V8.997C21 8.59918 20.842 8.21764 20.5607 7.93634C20.2794 7.65504 19.8978 7.497 19.5 7.497H16.098C16.353 7.938 16.5 8.4495 16.5 8.997Z" fill="#FAF9F6"></path></svg> 