<?xml version="1.0" encoding="UTF-8"?> <svg xmlns="http://www.w3.org/2000/svg" width="24" height="24" viewBox="0 0 24 24" fill="none"><path d="M3.5 7C3.5 5.67392 4.02678 4.40215 4.96447 3.46447C5.90215 2.52678 7.17392 2 8.5 2C9.82608 2 11.0979 2.52678 12.0355 3.46447C12.9732 4.40215 13.5 5.67392 13.5 7C13.5 8.32608 12.9732 9.59785 12.0355 10.5355C11.0979 11.4732 9.82608 12 8.5 12C7.17392 12 5.90215 11.4732 4.96447 10.5355C4.02678 9.59785 3.5 8.32608 3.5 7ZM23.596 8.44L17.939 14.096L14.404 10.561L15.818 9.146L17.939 11.268L22.182 7.025L23.596 8.44ZM0 19C0 17.6739 0.526784 16.4021 1.46447 15.4645C2.40215 14.5268 3.67392 14 5 14H12C13.3261 14 14.5979 14.5268 15.5355 15.4645C16.4732 16.4021 17 17.6739 17 19V21H0V19Z" fill="#FAF9F6"></path></svg> 