<?xml version="1.0" encoding="UTF-8"?> <svg xmlns="http://www.w3.org/2000/svg" viewBox="0 0 207 140" fill="none"><path fill-rule="evenodd" clip-rule="evenodd" d="M102.641 0.4140575C102.25925 0.6362675 101.36225 1.1568625 100.64775 1.57087C99.933 1.9848775 97.31975 3.54305 94.84075 5.033475C92.3615 6.5239 89.74075 8.0884 89.0165 8.5101C87.85225 9.1883 79.0355 14.521325 78.45425 14.89905C78.33025 14.97975 78.0935 15.1142 77.92825 15.19805C77.76275 15.2819 77.44575 15.468125 77.2235 15.61175C76.469 16.099525 72.15775 18.73005 70.997 19.41085C69.718 20.160875 69.7035 20.17005 68.532 20.927025C68.07725 21.221025 67.60375 21.51085 67.47975 21.5712C67.35575 21.631575 67.119 21.76315 66.9535 21.863725C66.78825 21.9643 66.11175 22.346975 65.45025 22.714175C64.78875 23.0812 62.70675 24.31735 60.824 25.461C58.94075 26.60475 57.36925 27.5405 57.331 27.5405C57.29325 27.5405 56.82 27.8115 56.27975 28.14275C55.73925 28.47375 55.24075 28.74475 55.172 28.74475C55.10325 28.74475 54.76925 28.94625 54.42975 29.1925C53.51475 29.85625 51.53975 30.8985 51.4215 30.78C51.3 30.6585 51.19525 16.3243 51.3125 15.848575C51.372 15.608 51.54875 15.496725 51.99225 15.42175C52.5215 15.332325 52.6115 15.2548 52.75825 14.764475C52.99075 13.9875 52.88475 10.799925 52.61575 10.4758C52.43075 10.2533 51.83975 10.2274 46.94575 10.2274C41.698 10.2274 41.47575 10.238825 41.3265 10.51855C41.241 10.67875 41.17075 11.724 41.17075 12.841375C41.17075 15.1172 41.25925 15.346025 42.14025 15.346025C42.41375 15.346025 42.726 15.452775 42.834 15.5833C43.05675 15.852025 43.24775 22.5201 43.26525 30.64125C43.277 35.9425 43.356 35.58575 41.99775 36.34175C41.58425 36.5715 40.29875 37.3035 39.14125 37.96825C37.98375 38.63275 36.73225 39.3475 36.36 39.55625C35.988 39.765 35.2595 40.1955 34.74125 40.513C34.223 40.83025 33.76875 41.08975 33.73175 41.08975C33.695 41.08975 33.16325 41.39475 32.55025 41.76725C31.9375 42.13975 31.397 42.44475 31.34925 42.44475C31.1665 42.44475 28.27075 44.261 28.07375 44.499C27.78175 44.85175 27.77125 50.46475 28.06175 50.75525C28.33125 51.0245 31.48275 50.9365 32.67675 50.626C33.60075 50.38575 34.97525 49.74475 35.90625 49.11925C36.19425 48.926 36.51575 48.76775 36.62075 48.76775C36.77475 48.76775 36.80425 57.1125 36.77375 91.86225L36.736 134.95675H31.023C25.3935 134.95675 25.311 134.95225 25.361 134.6555C25.389 134.49 25.49825 134.15125 25.60375 133.90275C25.802 133.436 26.13225 132.5885 26.49775 131.607C26.789 130.8255 27.1895 128.98675 27.1895 128.43125C27.1895 128.178 27.2535 127.64575 27.3315 127.2485C27.4095 126.851 27.51725 125.8655 27.571 125.058L27.66875 123.59025H28.14725C28.4105 123.59025 28.77625 123.48475 28.96 123.35575C29.26 123.14525 29.29425 122.99275 29.29425 121.86125C29.29425 120.916 29.23525 120.54175 29.058 120.36425C28.855 120.161 28.26 120.1275 24.8486 120.1275H20.875375V119.72425C20.875375 119.15425 21.121625 118.41475 21.732425 117.15075C22.36775 115.83575 22.9446 115.32575 24.93445 114.31975C25.72 113.9225 26.7565 113.33925 27.23775 113.0235C27.719 112.70775 28.17 112.44975 28.24 112.44975C28.31 112.44975 28.38975 112.39875 28.41725 112.33675C28.44475 112.2745 28.854 111.96025 29.3265 111.638C30.10825 111.10475 31.13275 110.10875 33.083 107.98675C33.85875 107.1425 34.483 106.0725 34.3375 105.83675C33.9635 105.23075 31.251 105.51925 29.34675 106.36725C29.08625 106.48325 28.82625 106.57825 28.769 106.57825C28.71175 106.57825 28.01175 107.00975 27.21325 107.537C24.9528 109.0295 23.741675 110.44 22.737275 112.7495C22.357825 113.622 22.222375 113.81375 22.13925 113.5965C22.041075 113.34025 22.304175 110.41125 22.6952 107.40625C22.781475 106.744 22.888525 104.50825 22.933175 102.43825C22.99255 99.68975 23.070875 98.552 23.223325 98.22025C23.423125 97.78575 24.745775 96.8125 26.454 95.84325C29.50225 94.1135 32.68475 90.8215 34.09575 87.9385C35.0615 85.9655 35.04 85.6015 33.9675 85.75725C32.40975 85.98375 30.4205 86.8635 27.68825 88.53475C25.0235 90.1645 23.5028 92.37375 23.202125 95.0515C23.007125 96.789 22.63115 97.16075 22.469075 95.7765C22.3703 94.933 22.31515 94.6825 21.814975 92.803C21.4322 91.36575 20.370525 89.2165 19.1098 87.32725C16.9394 84.0745 13.205025 80.684 11.792925 80.684C11.284325 80.684 11.1833 81.28375 11.31395 83.52825C11.505325 86.821 12.4129 89.47475 14.28205 92.208C15.364925 93.7915 16.62685 94.99625 18.537325 96.27025C20.4239 97.5285 21.0015 98.03475 21.09155 98.51C21.124325 98.68325 21.2709 99.43475 21.417175 100.18C21.71695 101.70675 21.7637 105.0535 21.49925 106.0515C21.283975 106.8635 20.897175 109.47725 20.719325 111.3205C20.4938 113.658 19.871425 118.00925 19.743025 118.14675C19.6417 118.2555 19.24525 117.30175 19.002025 116.364C18.605425 114.8355 18.314825 112.437 18.21665 109.885L18.1266 107.54625L19.005475 105.519C19.874875 103.51425 19.8845 103.4765 19.88195 102.06175C19.878175 99.9035 19.174 97.992 18.338125 97.87175C17.91825 97.8115 16.78635 98.9225 16.4523 99.723C15.704375 101.51575 15.5527 103.8345 16.06805 105.59975C16.6727 107.671 17.20865 112.60025 16.8292 112.60025C16.753575 112.60025 16.4929 112.2765 16.2498 111.881C15.2176 110.20125 13.044775 108.369 10.8709 107.34525C9.09935 106.51125 8.375025 106.2705 6.7437 105.97425C5.624 105.77075 4.607725 105.9945 4.517375 106.4645C4.3547 107.311 6.438075 109.75 8.54775 111.18325C9.5254 111.84725 11.668 112.9545 15.3129 114.6795C16.392925 115.1905 17.083125 115.82725 17.5469 116.74025C17.92725 117.48875 18.511175 119.6525 18.406525 119.9255C18.34415 120.0885 17.45625 120.1275 13.822775 120.1275C9.336575 120.1275 9.315375 120.12925 9.0825 120.46225C8.74965 120.93825 8.759725 122.72725 9.097225 123.06525C9.451425 123.41975 10.056675 123.6215 10.4617 123.51975C10.652775 123.4715 10.93795 123.5015 11.09565 123.586C11.3556 123.7255 11.38355 123.93375 11.393325 125.81025C11.40385 127.81275 11.616125 129.451 12.10035 131.26825C12.303625 132.031 12.487475 132.548 12.98435 133.75225C13.311175 134.5445 13.381075 135.02925 13.17345 135.06325C13.068525 135.08075 10.073675 135.0975 6.5182 135.101L0.05372825 135.10725L0.01043085 137.21475C-0.01332235 138.374 0.004869025 139.475 0.0510225 139.66125L0.1346095 140H103.383C183.487 140 206.67175 139.9595 206.81175 139.81925C207.06275 139.568 207.06275 135.6145 206.81175 135.363C206.677 135.22825 204.98325 135.1825 200.11725 135.1825C194.75625 135.1825 193.589 135.14625 193.52425 134.97725C193.481 134.86425 193.62375 134.27175 193.84175 133.66C194.755 131.09575 195.2015 128.75725 195.3475 125.77325C195.4 124.69675 195.513 123.7315 195.59825 123.628C195.684 123.52425 196.0675 123.43975 196.451 123.43975C197.3305 123.43975 197.539 123.147 197.637 121.775C197.7045 120.83025 197.6875 120.76425 197.2935 120.45425C196.8915 120.13725 196.758 120.1275 192.774 120.1275C190.071 120.1275 188.63575 120.07375 188.5715 119.96975C188.412 119.71125 188.955 117.557 189.40475 116.665C189.83575 115.80975 190.4805 115.009 190.738 115.009C190.819 115.009 191.3465 114.8015 191.9105 114.54775C193.006 114.055 193.166 113.98725 194.2135 113.57325C197.52675 112.264 199.32675 111.1035 201.70325 108.74475C203.11925 107.3395 203.2505 107.16175 203.2065 106.70875C203.165 106.279 203.088 106.19675 202.6325 106.09325C202.343 106.02775 201.4975 106.01625 200.75325 106.068C197.22475 106.3135 192.89775 108.95175 190.71175 112.1905C190.47025 112.54775 190.28825 112.69525 190.22175 112.58725C189.93375 112.1205 190.41 108.19 190.98625 106.27725C191.444 104.759 191.54225 103.95775 191.4485 102.5135C191.298 100.1945 190.57375 98.45025 189.53825 97.914C188.879 97.57275 188.6765 97.64575 188.20075 98.39675C187.58375 99.37075 187.298 100.4715 187.298 101.8745C187.298 103.258 187.3995 103.6225 188.28075 105.4085C188.6855 106.2285 188.9695 107.04325 189.03575 107.5745C189.146 108.45725 188.906 111.904 188.6335 113.353C188.15525 115.8975 187.588 117.94475 187.3615 117.94475C187.044 117.94475 186.7695 115.73125 186.39125 110.11625C186.3075 108.87425 186.17275 107.362 186.092 106.75575C186.01125 106.14925 185.945 104.10125 185.945 102.2045C185.945 98.24775 186.0325 97.82875 187.05125 96.906C187.39375 96.59575 187.73275 96.3415 187.8045 96.3415C188.17475 96.34025 189.8975 95.1105 190.75575 94.2345C193.57875 91.354 195.12375 87.46025 195.356 82.641C195.428 81.14775 195.403 80.702 195.235 80.48125C195.03 80.21225 195.0025 80.21325 194.35525 80.518C193.988 80.691 193.31575 81.138 192.8615 81.511C192.4075 81.88425 191.98925 82.1895 191.932 82.1895C191.703 82.1895 188.43575 85.956 187.688 87.08225C185.8795 89.8055 184.84375 92.49425 184.5045 95.347L184.4165 96.08425L184.1295 95.648C183.9715 95.40825 183.84175 95.028 183.8415 94.80325C183.84 94.27975 183.47675 93.20725 182.896 92.01175C182.09025 90.353 180.49725 88.94125 177.72 87.4245C175.517 86.2215 173.039 85.345 172.4645 85.56575C172.14475 85.68875 172.23025 86.3005 172.72 87.39375C173.9935 90.23625 176.51725 92.80675 180.608 95.42875C181.5965 96.062 181.79675 96.184 182.1115 96.34375C183.17625 96.885 183.94075 97.413 184.10125 97.7185C184.2035 97.91325 184.288 98.6175 184.289 99.2835C184.29225 100.891 184.563 106.365 184.747 108.5355C185.18725 113.72475 185.164 113.92275 184.3105 112.261C183.309 110.3115 182.54825 109.39225 180.83375 108.0585C179.08525 106.699 177.0145 105.7955 175.0295 105.52575C172.31325 105.15675 172.16525 105.4215 173.8845 107.5765C176.1325 110.39475 178.425 112.2605 181.49225 113.76825C183.5335 114.7715 184.3125 115.3875 184.9385 116.49375C185.74975 117.927 186.3455 119.82 186.04525 120.01125C185.94875 120.07275 184.1415 120.124 182.02875 120.12525C179.2445 120.127 178.138 120.17725 178.00725 120.30825C177.895 120.42075 177.827 120.97725 177.827 121.78375C177.827 123.24875 177.931 123.43975 178.729 123.43975C179.54125 123.43975 179.631 123.6195 179.631 125.25025C179.631 126.691 179.92475 129.24325 180.2495 130.622C180.343 131.01875 180.68875 132.021 181.0175 132.849C181.3465 133.677 181.6255 134.52375 181.638 134.73075L181.6605 135.10725L176.24825 135.05025C173.27175 135.01875 170.78575 134.964 170.724 134.92875C170.588 134.8505 170.57075 49.15925 170.70675 49.023C170.75925 48.97025 170.979 49.0515 171.195 49.2035C171.75875 49.60025 173.5885 50.5095 174.294 50.7435C174.69725 50.8775 175.539 50.93125 176.84975 50.907C178.47475 50.87675 178.83575 50.82825 178.992 50.6185C179.12725 50.43725 179.18 49.55225 179.18 47.471C179.18 44.633 179.17275 44.567 178.819 44.15C178.6205 43.916 178.19775 43.5895 177.87925 43.42475C177.561 43.25975 176.8745 42.8425 176.3535 42.4975C175.83275 42.15225 174.987 41.65625 174.4745 41.39525C173.96175 41.13425 173.4095 40.84 173.24725 40.74175C172.564 40.3275 171.84225 39.9075 171.137 39.5135C168.4605 38.0185 167.748 37.62125 167.07775 37.25025C166.6645 37.02125 165.751 36.48125 165.04825 36.05025C164.3455 35.619 163.3645 35.04275 162.8685 34.77C162.37225 34.49675 161.66425 34.1065 161.29475 33.9025C160.92525 33.6985 160.338 33.33525 159.98975 33.0955C159.6415 32.8555 159.3135 32.659 159.26075 32.659C159.20825 32.659 158.94975 32.499 158.6865 32.3035C158.42325 32.10775 157.7345 31.69125 157.1555 31.3775C156.57675 31.064 155.85075 30.648 155.5425 30.4535C155.234 30.259 154.9495 30.09975 154.91025 30.09975C154.871 30.09975 154.055 29.6255 153.0965 29.046C152.138 28.46625 151.32975 27.992 151.30025 27.992C151.24025 27.992 148.293 26.238 146.148 24.925725C145.3855 24.459475 144.72925 24.077825 144.68925 24.077825C144.64925 24.077825 143.07425 23.140525 141.1895 21.99485C137.94925 20.025525 136.934 19.432375 135.40625 18.61535C135.04825 18.424 133.63925 17.58575 132.27475 16.75275C130.9105 15.919775 129.3885 15.016925 128.89225 14.7464C128.39625 14.475875 127.78725 14.106275 127.53925 13.92515C127.05 13.56775 124.51175 12.02585 121.3065 10.138875C120.19375 9.483825 119.145 8.865675 118.97625 8.765425C118.8075 8.66515 118.568 8.533575 118.444 8.47305C118.31975 8.412525 116.67375 7.42765 114.78625 6.284225C112.8985 5.140975 111.329 4.205475 111.29875 4.205475C111.2685 4.205475 110.38825 3.68035 109.3425 3.038725C108.29675 2.39708 107.329 1.80422 107.19175 1.7214175C105.908 0.946095 103.96325 -0.00792935 103.683 0.00004971675C103.49175 0.00562 103.02275 0.19199875 102.641 0.4140575ZM103.35375 9.21405C103.11625 9.2952 102.40575 9.688125 101.77525 10.086925C101.14475 10.485875 99.71575 11.36975 98.5995 12.0513C97.48325 12.732825 96.02875 13.640625 95.36725 14.068625C94.70575 14.49665 93.254 15.382625 92.14125 16.03735C91.02825 16.692075 89.97975 17.30995 89.811 17.4102C89.64225 17.510475 89.4025 17.6416 89.2785 17.701825C89.09275 17.79185 86.38075 19.44365 84.9895 20.314125C82.581 21.820975 81.11975 22.6922 80.4235 23.03575C79.9605 23.264275 78.93925 23.857725 78.15375 24.35455C74.57 26.621 74.05175 26.93525 71.82075 28.196C70.963 28.68075 70.09175 29.19475 69.88525 29.33825C69.6785 29.48175 69.1035 29.8245 68.60725 30.1C68.11125 30.37525 67.15675 30.95825 66.486 31.3955C65.8155 31.8325 65.00375 32.334 64.682 32.51C63.758 33.01475 63.19325 33.352 60.81375 34.82025C58.7045 36.1215 58.24425 36.397 56.81325 37.21325C56.48675 37.3995 55.469 38.02625 54.5515 38.60575C53.634 39.18525 52.572 39.837 52.1915 40.05375C51.811 40.2705 51.27275 40.629 50.9955 40.8505L50.49175 41.25325V77.90925V114.56525L48.199 114.5235L45.9065 114.482L45.81475 113.27775C45.7645 112.61525 45.7135 96.9385 45.7015 78.44025C45.68525 53.259 45.636 44.755 45.506 44.598C45.3895 44.4575 45.18475 44.421 44.885 44.487C44.1845 44.641 41.877 46.09075 41.66575 46.5095C41.51425 46.8095 41.47575 54.49625 41.475 84.44775C41.47475 108.5505 41.4135 124.228 41.30475 128.201C41.1825 132.66525 41.181 134.4715 41.29875 134.67475C41.44875 134.93325 41.4635 134.92525 41.475 134.58025C41.49375 134.0245 41.7225 132.161 41.99275 130.365C42.1235 129.4955 42.29475 128.279 42.37325 127.6615C42.452 127.044 42.58275 126.19725 42.66425 125.77975C43.024 123.93425 43.1635 122.16125 43.07025 120.61875C42.99825 119.42325 43.029 118.789 43.188 118.19975C43.45275 117.217 43.628 116.99775 44.421 116.65725C44.97875 116.418 45.711 116.38425 51.33875 116.339C55.8695 116.30275 57.84325 116.33925 58.38425 116.46925C59.84875 116.82075 61.55625 117.11675 62.14625 117.12125C62.86775 117.12675 65.264 117.60825 65.92675 117.88075C66.504 118.11825 66.795 117.94025 67.019 117.21325C67.19225 116.65125 67.96325 114.50925 68.209 113.90775C68.304 113.67475 68.38175 113.40025 68.38175 113.298C68.38175 113.19575 68.4545 113.03925 68.543 112.9505C68.63175 112.86175 68.6825 112.56025 68.65575 112.2805L68.60725 111.77225L64.0895 111.7325L59.57175 111.6925L59.31625 112.27225C59.17575 112.591 59.061 112.91475 59.061 112.99175C59.061 113.20825 58.4425 114.318 58.25275 114.44225C58.15975 114.503 57.5305 114.55375 56.854 114.555C55.63175 114.55725 55.15225 114.3775 55.15225 113.9165C55.15225 113.678 55.92075 110.737 56.20425 109.89025C56.27375 109.68325 56.5445 108.5995 56.80625 107.4815C58.3875 100.73 58.7265 99.73575 59.82275 98.6365C60.174 98.2845 60.83075 97.82125 61.28225 97.6075L62.10325 97.2185L67.2695 97.22225L72.436 97.226L73.22775 97.62275C74.28825 98.15425 74.63025 98.50075 74.834 99.24975C75.08125 100.159 74.947 100.74775 72.94225 107.55675C72.8205 107.97075 72.6645 108.51275 72.59575 108.76125C72.52725 109.00975 72.4045 109.416 72.3235 109.6645C72.24225 109.913 72.06475 110.48875 71.92925 110.94425C71.58775 112.09 69.94975 117.10825 69.767 117.56825C69.6845 117.77525 69.5005 118.2495 69.3575 118.62225C68.71525 120.29575 68.24425 121.319 67.822 121.95775L67.44625 122.5265L68.16475 124.752C68.56 125.976 68.9395 127.04175 69.00825 127.1205C69.07725 127.19925 69.1335 127.35825 69.1335 127.47425C69.1335 127.59 69.22875 127.89825 69.3455 128.15925C69.462 128.42 69.77225 129.24325 70.03475 129.9885C70.29775 130.73375 70.57425 131.461 70.65 131.60475C70.72525 131.7485 70.78725 131.9415 70.78725 132.03375C70.78725 132.12575 70.88025 132.41475 70.99425 132.67575C71.10825 132.9365 71.32075 133.48875 71.4665 133.90275C71.61225 134.31675 71.79775 134.74025 71.879 134.84375C71.99625 134.99325 78.49875 135.032 103.493 135.032C131.8985 135.032 134.9825 135.009 135.19575 134.7955C135.32575 134.66525 135.432 134.432 135.432 134.27725C135.432 134.1225 135.4995 133.954 135.58225 133.90275C135.665 133.8515 135.733 133.69525 135.7335 133.55525C135.734 133.41525 135.82375 133.1295 135.93275 132.92025C136.04175 132.711 136.171 132.406 136.21975 132.24275C136.26875 132.07925 136.45275 131.573 136.629 131.11775C136.80525 130.66225 137.0865 129.88325 137.25375 129.38625C137.42125 128.8895 137.61875 128.3475 137.69275 128.182C137.87125 127.7825 138.57625 125.75975 138.76825 125.09575C138.85225 124.806 138.9675 124.501 139.02475 124.41825C139.08175 124.3355 139.2515 123.9095 139.40175 123.47175L139.6755 122.676L139.015 121.51475C138.0785 119.869 137.48725 118.49775 137.086 117.0415C137.01775 116.793 136.887 116.3865 136.796 116.138C136.58175 115.5555 135.4955 112.14725 135.21225 111.17C134.56275 108.92975 134.25325 107.83925 133.8455 106.3525C133.7095 105.85575 133.53925 105.246 133.4675 104.9975C133.39575 104.749 133.22725 104.1395 133.093 103.6425C132.959 103.14575 132.75325 102.46475 132.636 102.129C132.51875 101.79325 132.4085 100.89775 132.39125 100.13925C132.3605 98.79625 132.3715 98.747 132.80575 98.29025C133.05125 98.032 133.52275 97.687 133.8535 97.52325C134.41525 97.2455 134.77925 97.226 139.38475 97.22525C145.02225 97.2245 145.29825 97.26875 146.5265 98.3745C147.573 99.317 148.4615 101.152 149.186 103.8685C149.32975 104.4065 149.50725 105.01625 149.58075 105.22325C149.71525 105.60175 150.35625 107.941 150.633 109.06225C150.71475 109.3935 150.94125 110.1725 151.136 110.79375C151.69525 112.57575 151.969 113.58425 151.969 113.86325C151.969 114.251 151.063 114.55725 149.9165 114.55725C148.6265 114.55725 148.33375 114.304 147.88225 112.7995L147.5505 111.6925L143.03425 111.7325C138.7545 111.77 138.515 111.787 138.4635 112.0545C138.41525 112.306 138.71475 113.51375 139.028 114.3315C139.0915 114.497 139.26025 115.00525 139.403 115.46075C139.54575 115.916 139.80775 116.64925 139.985 117.09025C140.25225 117.75475 140.35975 117.87925 140.61325 117.81725C140.7815 117.77625 141.33375 117.6385 141.84025 117.511C142.34675 117.3835 143.22625 117.23775 143.7945 117.187C144.363 117.1365 145.47075 117.00125 146.25625 116.887C149.96775 116.347 150.81075 116.29775 156.404 116.29325C162.53875 116.28825 162.8715 116.324 163.5605 117.0575C163.90825 117.428 163.92425 117.5475 164.02025 120.478C164.07475 122.1485 164.1905 124.599 164.2775 125.92375C164.3645 127.2485 164.438 129.2425 164.44125 130.35475C164.449 133.14125 164.6925 134.9825 165.06625 135.08025C165.2215 135.121 165.3995 135.07575 165.4615 134.98C165.52375 134.88425 165.5925 114.88225 165.6145 90.53075L165.6545 46.2555L165.3405 45.8555C165.16775 45.6355 164.958 45.45575 164.87475 45.45575C164.79125 45.45575 164.01475 45.04725 163.14925 44.548C162.284 44.04875 161.5115 43.68025 161.43275 43.729C161.343 43.7845 161.28975 56.8845 161.28975 78.94925C161.28975 98.27175 161.24875 114.18825 161.1985 114.31925C161.12075 114.5225 160.759 114.55725 158.728 114.55725C156.42025 114.55725 156.346 114.5475 156.2455 114.23125C156.18875 114.05175 156.16725 97.39175 156.198 77.209C156.2285 57.026 156.21975 40.48075 156.1785 40.442C156.137 40.40325 154.1075 39.16725 151.66825 37.69575C149.229 36.22425 146.53825 34.5905 145.68825 34.0655C144.83875 33.5405 144.115 33.11075 144.08 33.11075C144.04525 33.11075 143.0625 32.535 141.8965 31.831C140.73025 31.12725 139.7375 30.5515 139.6905 30.5515C139.64325 30.5515 138.76125 30.02625 137.73025 29.38475C136.69925 28.743 135.57425 28.056 135.23025 27.85775C134.8865 27.65975 134.26675 27.28075 133.8535 27.01525C133.44 26.75 132.865 26.3965 132.5755 26.23C132.28625 26.06325 130.42575 24.942425 128.44125 23.73925C126.45675 22.535925 124.0215 21.079975 123.02925 20.503825C122.037 19.927525 119.20975 18.226475 116.7465 16.72355C114.28325 15.220775 112.2375 13.9911 112.2005 13.9911C112.1635 13.9911 110.39025 12.93305 108.2605 11.63985C106.13025 10.346625 104.252 9.2386 104.08675 9.177475C103.92125 9.11635 103.5915 9.13275 103.35375 9.21405ZM101.531 23.76995C98.43325 24.40105 96.16975 25.632 93.99725 27.86675C91.939 29.984 90.866 32.01075 90.26425 34.91725C89.76125 37.34725 90.102 40.62375 91.05875 42.55575C91.13125 42.70175 91.4185 43.2805 91.69775 43.84175C93.1115 46.68475 95.9905 49.18675 98.97525 50.16675C101.288 50.92625 101.45425 50.951 104.162 50.94225C106.7395 50.93425 106.81825 50.92425 108.0455 50.459C110.68225 49.45925 112.65975 48.0045 114.18825 45.9395C115.081 44.73375 116.32975 42.41575 116.33575 41.95325C116.33775 41.80725 116.40175 41.57025 116.47825 41.4265C117.08175 40.29225 117.30025 36.23925 116.855 34.44025C116.25425 32.01375 115.194 29.99825 113.39325 27.86025C112.8605 27.228 111.15325 25.9315 110.09775 25.35775C109.52025 25.04375 108.98025 24.7401 108.8975 24.6829C108.81475 24.625675 108.34125 24.4643 107.84525 24.324425C107.349 24.184425 106.74025 23.995475 106.492 23.9044C105.935 23.7001 102.351 23.60285 101.531 23.76995ZM101.23025 27.07725C100.028 27.28 97.7445 28.58575 96.36525 29.859C94.75875 31.34225 93.27175 34.26475 93.36575 35.754L93.41275 36.498L97.98775 36.538C101.54775 36.569 102.58975 36.5355 102.6835 36.3875C102.82275 36.1675 102.85475 27.5345 102.7175 27.1765C102.6215 26.9255 102.26925 26.902 101.23025 27.07725ZM104.52125 27.32625C104.355 27.9905 104.5925 36.1415 104.785 36.37375C104.9155 36.53125 105.8845 36.57325 109.37175 36.57325C113.15275 36.57325 113.8055 36.54075 113.879 36.34875C113.97325 36.103 113.693 34.291 113.49875 33.8885C113.43225 33.7505 113.12425 33.1095 112.8145 32.46375C111.92725 30.61525 110.309 29.02775 108.29625 28.03075C106.76425 27.272 106.3435 27.12 105.4705 27.01075C104.63775 26.90675 104.6255 26.91075 104.52125 27.32625ZM93.2595 38.53525C93.127 38.75 93.32175 40.11875 93.59075 40.864C94.2465 42.6795 94.92 43.72925 96.344 45.1545C97.85525 46.6675 98.696 47.20425 100.6775 47.91975C101.28075 48.13775 101.97425 48.316 102.2185 48.316H102.6625L102.623 43.38575L102.58325 38.45525L97.97075 38.4155C94.8415 38.38825 93.3265 38.427 93.2595 38.53525ZM104.643 38.5605C104.5105 38.69325 104.4625 39.97125 104.4625 43.37275C104.4625 48.72425 104.39375 48.4885 105.83075 48.06175C107.4945 47.568 108.1385 47.244 109.7775 46.07575C111.6915 44.71175 112.70675 43.30025 113.47175 40.93925C113.94975 39.46475 114.07525 38.7765 113.904 38.57C113.68275 38.303 104.909 38.29425 104.643 38.5605ZM86.2795 61.2255C82.488 61.257 81.22175 61.31325 81.13275 61.4535C81.06775 61.556 81.01375 77.39925 81.01225 96.66125C81.0105 124.498 81.0485 131.71475 81.198 131.83775C81.32475 131.942 88.68575 131.992 103.82825 131.99125C123.36825 131.99025 126.29925 131.9615 126.4915 131.769C126.6845 131.5755 126.7125 127.1305 126.7125 96.511C126.7125 69.46075 126.67125 61.43275 126.532 61.29325C126.3935 61.1545 122.29725 61.121 108.82975 61.14825C99.193 61.16775 89.04525 61.2025 86.2795 61.2255ZM85.76175 67.8245C85.643 68.134 85.6465 79.7505 85.76525 80.19475C85.85525 80.53125 85.87525 80.5335 88.7645 80.5335C91.4865 80.5335 91.68325 80.51475 91.829 80.24225C91.92875 80.05575 91.98475 77.833 91.98475 74.05975C91.98475 70.28675 91.92875 68.064 91.829 67.8775C91.68325 67.605 91.4865 67.58625 88.76325 67.58625C86.248 67.58625 85.84075 67.61875 85.76175 67.8245ZM93.464 68.52725C93.41775 70.333 93.5225 80.3085 93.589 80.4205C93.62575 80.48275 95.0365 80.5335 96.72375 80.5335C99.603 80.5335 99.801 80.5155 99.94725 80.24225C100.04725 80.055 100.10275 77.7425 100.10275 73.76875V67.58625H96.7955H93.488L93.464 68.52725ZM107.11075 67.8215C107.06 67.954 107.01825 70.7645 107.01825 74.067C107.01825 79.849 107.029 80.077 107.309 80.227C107.77525 80.477 113.104 80.43275 113.31575 80.17725C113.438 80.0295 113.475 78.235 113.44675 73.8165L113.4075 67.6615L110.3055 67.621C107.575 67.585 107.192 67.60925 107.11075 67.8215ZM115.23125 67.925C115.1815 68.11125 115.13975 70.9205 115.1385 74.1675C115.13675 79.85125 115.14725 80.077 115.42725 80.227C115.79275 80.423 121.14 80.43225 121.44725 80.2375C121.63725 80.11725 121.67 79.22825 121.67275 74.13375C121.67475 70.854 121.6275 68.039 121.56825 67.87825C121.46625 67.6025 121.2915 67.58625 118.391 67.58625C115.33525 67.58625 115.3215 67.58775 115.23125 67.925ZM85.77075 82.4405C85.7155 82.4955 85.6705 85.395 85.6705 88.884C85.6705 93.61675 85.71625 95.27275 85.851 95.4075C86.08225 95.63925 91.26675 95.66125 91.69375 95.4325C91.97425 95.282 91.98475 95.05025 91.98475 88.89975C91.98475 83.2235 91.9585 82.51275 91.74675 82.4315C91.42225 82.3065 85.896 82.31475 85.77075 82.4405ZM93.4655 83.50675C93.389 87.4575 93.54025 95.37275 93.694 95.473C93.9455 95.637 99.53925 95.6075 99.80225 95.44075C99.99825 95.3165 100.0205 94.46775 99.97225 88.932C99.93275 84.418 99.867 82.5335 99.74675 82.45525C99.65325 82.39425 98.20675 82.34375 96.53225 82.34225L93.488 82.34L93.4655 83.50675ZM107.05425 88.9235L107.0935 95.513L109.94975 95.55575C111.521 95.57925 112.95925 95.56075 113.14625 95.51475L113.486 95.43125L113.44675 88.92325L113.4075 82.41525L110.21125 82.37475L107.01525 82.334L107.05425 88.9235ZM115.3245 82.43975C115.17825 82.49875 115.1365 83.93275 115.1365 88.896C115.1365 95.05025 115.14675 95.282 115.42725 95.4325C115.79525 95.62975 121.141 95.637 121.4505 95.44075C121.64475 95.3175 121.6785 94.42275 121.692 89.007C121.702 85.1075 121.652 82.64475 121.561 82.52825C121.4515 82.38825 120.65675 82.343 118.46325 82.352C116.84 82.3585 115.42775 82.398 115.3245 82.43975ZM101.8755 91.30475C101.183 91.759 101.00475 92.083 101.00475 92.88825C101.00475 94.42675 102.4465 95.415 103.725 94.75275C105.12725 94.0265 105.10275 91.865 103.68425 91.15625C103.037 90.833 102.53125 90.8745 101.8755 91.30475ZM175.196 96.5895C174.7825 96.70875 173.903 96.9685 173.2415 97.16625C172.58025 97.36425 171.819 97.56975 171.55025 97.623C171.17575 97.69725 171.06175 97.7975 171.06175 98.05225C171.06175 98.29625 171.3305 98.562 172.0715 99.0495C173.4115 99.932 174.594 100.39775 176.3235 100.72475C178.097 101.05975 179.14825 101.07325 180.56075 100.7785C181.6875 100.5435 183.63375 99.86625 183.757 99.6665C184.035 99.21575 182.74625 98.137 181.05925 97.408C180.64575 97.2295 180.19575 97.02125 180.059 96.946C179.025 96.374 176.5655 96.194 175.196 96.5895ZM28.111 97.2555C25.998 97.8015 23.73175 99.1255 23.73175 99.8135C23.73175 100.11425 25.111 100.75225 26.66325 101.16975C28.03825 101.53925 30.8035 101.56725 31.73425 101.22075C34.809 100.0765 35.534 99.71425 36.0285 99.07675L36.37325 98.632L35.86025 98.3145C35.57825 98.14 35.236 97.997 35.1 97.997C34.96375 97.997 34.735 97.933 34.5915 97.8545C33.7955 97.41975 31.1995 96.92825 29.84725 96.95625C29.50175 96.96325 28.7205 97.098 28.111 97.2555ZM85.77375 97.34175C85.6465 97.469 85.63475 109.6225 85.76175 109.95325C85.8405 110.159 86.247 110.1915 88.75025 110.1915H91.6475L91.81825 109.7775C91.93825 109.48625 91.97725 107.57675 91.94925 103.3415L91.9095 97.3195L88.89325 97.279C87.23425 97.2565 85.8305 97.28475 85.77375 97.34175ZM93.585 97.35925C93.4675 97.54975 93.4105 101.11775 93.4505 105.788L93.488 110.1915H96.70425C99.49825 110.1915 99.93225 110.16025 100.0115 109.95325C100.1755 109.52575 100.11475 97.84925 99.94725 97.5355C99.801 97.26225 99.603 97.24425 96.72375 97.24425C95.0365 97.24425 93.624 97.296 93.585 97.35925ZM107.2545 97.48075C107.0475 97.688 107.01825 98.46325 107.01825 103.712C107.01825 110.60975 106.928 110.18225 108.4485 110.4875C109.12675 110.62375 109.64525 110.62825 110.5265 110.5055C111.172 110.4155 112.02025 110.342 112.41125 110.342C112.80225 110.342 113.20325 110.26075 113.30225 110.16125C113.437 110.0265 113.48275 108.38525 113.48275 103.70375C113.48275 98.11925 113.4565 97.417 113.245 97.33575C113.11425 97.2855 111.766 97.24425 110.249 97.24425C107.942 97.24425 107.45225 97.283 107.2545 97.48075ZM115.2395 97.34175C115.183 97.3985 115.1365 100.2315 115.1365 103.6375C115.1365 108.25325 115.1825 109.87625 115.317 110.01075C115.445 110.13925 116.36025 110.1915 118.4785 110.1915C121.17875 110.1915 121.46975 110.1665 121.563 109.928C121.6195 109.78325 121.66825 106.887 121.671 103.492L121.676 97.3195L118.5095 97.279C116.76775 97.25675 115.29625 97.285 115.2395 97.34175ZM93.7675 112.0985C93.4295 112.1885 93.3855 113.2195 93.4625 119.252L93.5255 124.18575L93.9975 124.2745C94.25725 124.32325 95.672 124.34175 97.1415 124.3155C99.3165 124.2765 99.84025 124.22575 99.956 124.042C100.039 123.91025 100.09925 121.4175 100.1005 118.06275C100.10275 112.52775 100.09175 112.30375 99.812 112.15375C99.53225 112.004 94.303 111.956 93.7675 112.0985ZM85.76525 112.48725C85.60275 113.09475 85.65875 123.7385 85.826 124.05175C85.97125 124.323 86.16625 124.343 88.6825 124.343C91.183 124.343 91.4055 124.32075 91.684 124.042C91.97375 123.75175 91.98475 123.54 91.98475 118.23575C91.98475 114.729 91.928 112.62525 91.829 112.43975C91.68325 112.16725 91.4865 112.1485 88.7645 112.1485C85.87525 112.1485 85.85525 112.15075 85.76525 112.48725ZM107.01825 118.14875V124.15475L107.488 124.249C108.39475 124.4305 112.957 124.35575 113.2305 124.15475C113.46575 123.982 113.4835 123.4815 113.44725 118.09525L113.4075 112.22375L110.213 112.18325L107.01825 112.1425V118.14875ZM115.292 112.43975C115.19275 112.62525 115.1365 114.74525 115.1365 118.28775C115.1365 123.55425 115.15125 123.85825 115.42175 124.10325C115.67425 124.332 116.02925 124.3565 118.49675 124.31475C120.53275 124.2805 121.3385 124.21475 121.481 124.072C121.6335 123.919 121.678 122.66925 121.6845 118.35125C121.68925 115.31225 121.64025 112.6735 121.5755 112.48725C121.459 112.15125 121.4345 112.1485 118.453 112.1485C115.6355 112.1485 115.438 112.16675 115.292 112.43975ZM46.1805 121.5325C46.02975 121.7255 45.78475 122.45375 45.63625 123.15075C45.48775 123.848 45.29675 124.723 45.21225 125.09575C45.1275 125.46825 45.0205 126.217 44.97425 126.75925C44.8375 128.37175 44.68675 128.322 49.3355 128.195C51.475 128.1365 53.38825 128.02675 53.5875 127.95075C54.138 127.74125 54.0585 127.03125 53.1965 124.4605C52.35 121.93625 52.11275 121.4095 51.76275 121.275C51.629 121.2235 50.37975 121.1815 48.987 121.1815C46.513 121.1815 46.448 121.1895 46.1805 121.5325ZM155.38775 121.445C155.14775 121.713 154.7855 122.732 154.3035 124.4935C154.15625 125.03175 153.9385 125.74775 153.81925 126.0845C153.7 126.4215 153.62425 126.99725 153.65025 127.36425L153.69775 128.0315L157.92675 128.07125L162.15575 128.11125L162.2415 127.7825C162.28875 127.60175 162.22775 126.80475 162.106 126.01125C161.984 125.218 161.81925 124.06075 161.73975 123.43975C161.66 122.81875 161.482 122.0565 161.34425 121.746L161.09375 121.1815H158.35875C155.944 121.1815 155.596 121.21225 155.38775 121.445ZM55.95575 121.5645C55.86475 121.8015 55.996 122.508 56.4295 124.11725C56.5635 124.614 56.762 125.35925 56.871 125.77325C56.98 126.18725 57.16225 126.797 57.2765 127.128L57.4835 127.73025L61.6825 127.77025C64.2455 127.795 65.938 127.75375 66.027 127.66475C66.1635 127.528 65.79275 126.00325 65.5305 125.62275C65.4735 125.53975 65.30725 125.13325 65.1615 124.71925C64.7165 123.4575 63.97625 122.0905 63.68825 121.999C63.53825 121.95125 62.6895 121.85175 61.802 121.77775C60.9145 121.70375 59.71475 121.5755 59.136 121.49275C57.47475 121.25475 56.062 121.2865 55.95575 121.5645ZM148.361 121.42575C144.669 121.67875 143.357 121.84925 143.0115 122.12125C142.81175 122.27875 142.648 122.502 142.648 122.6175C142.648 122.73275 142.5535 123.04975 142.43775 123.32175C142.322 123.5935 142.111 124.121 141.96875 124.4935C141.8265 124.86625 141.6525 125.3065 141.582 125.472C141.1075 126.58625 140.841 127.43 140.90825 127.6055C140.9725 127.77275 141.81425 127.80275 145.5365 127.77025L150.08625 127.73025L150.34525 126.90225C150.4875 126.447 150.7115 125.66775 150.84275 125.171C150.974 124.67425 151.18325 123.929 151.308 123.515C151.43275 123.101 151.548 122.45725 151.564 122.08475L151.593 121.40725L150.31525 121.39325C149.6125 121.3855 148.733 121.40025 148.361 121.42575ZM46.91 122.2475C46.702 122.5825 46.3815 124.927 46.36625 126.22475L46.3575 126.9775H48.6125H50.8675V124.4935V122.0095L48.98825 121.968C47.21 121.92875 47.0985 121.94375 46.91 122.2475ZM156.272 122.055C156.1995 122.17225 156.14925 124.06675 156.16875 125.93925L156.1785 126.858L158.39575 126.94175C159.93175 126.99975 160.67625 126.97325 160.81825 126.856C160.9795 126.72275 161.00175 126.36275 160.923 125.176C160.86775 124.34525 160.76475 123.46225 160.694 123.21375C160.623 122.9655 160.524 122.576 160.47375 122.34825L160.38225 121.93425H158.36425C157.2545 121.93425 156.313 121.9885 156.272 122.055ZM50.9505 130.65125C50.72425 131.0745 50.74325 134.772 50.97275 135.00175C51.23125 135.26075 55.5075 135.254 55.72075 134.99425C55.86775 134.8155 55.833 134.635 55.16425 132.09625C55.099 131.84775 54.91675 131.3735 54.7595 131.04225L54.47375 130.44025L52.7915 130.39775C51.24825 130.35875 51.09575 130.37975 50.9505 130.65125ZM58.25925 130.46525C58.204 130.5205 58.15875 130.72025 58.15875 130.9095C58.15875 131.3165 58.99775 134.03925 59.28975 134.58025L59.49275 134.95675L64.01625 134.9965C67.96575 135.03125 68.551 135.007 68.62825 134.80575C68.7215 134.562 68.5915 134.16925 67.92975 132.697C67.706 132.1995 67.46975 131.62375 67.4045 131.4175C67.33925 131.21125 67.1865 130.89 67.065 130.70375C66.84425 130.36575 66.83525 130.365 62.6015 130.365C60.2685 130.365 58.31425 130.41 58.25925 130.46525ZM139.95575 130.86975C139.78275 131.14975 139.64125 131.42 139.64125 131.47C139.64125 131.52 139.47625 131.9185 139.27475 132.3555C138.65825 133.69125 138.43875 134.3 138.43875 134.674V135.032H143.31575C147.053 135.032 148.221 134.988 148.31325 134.84375C148.727 134.197 149.31875 132.07075 149.329 131.193L149.338 130.44025L144.804 130.40025L140.27 130.3605L139.95575 130.86975ZM153.14025 130.77375C152.7815 131.17875 151.94125 133.8835 151.99625 134.4565L152.04425 134.95675H154.07375H156.10325V132.77375V130.59075L154.74075 130.54775C153.58725 130.5115 153.3415 130.54625 153.14025 130.77375ZM44.478 131.2305C44.38725 131.54125 44.21525 132.466 44.0955 133.28575C43.846 134.99525 43.912 135.18375 44.75975 135.18025C45.71375 135.17625 45.75075 135.099 45.80625 132.998C45.861 130.916 45.782 130.666 45.06825 130.666C44.706 130.666 44.61825 130.75 44.478 131.2305Z" fill="#FAF9F6" fill-opacity="0.2"></path></svg> 