<?xml version="1.0" encoding="UTF-8"?> <svg xmlns="http://www.w3.org/2000/svg" width="11" height="24" viewBox="0 0 11 24" fill="none"><path d="M4.96028 2.98765C5.81698 2.98765 6.46807 3.08642 6.91355 3.28395C7.35903 3.46502 7.75311 3.67078 8.09579 3.90123C8.3014 4.01646 8.46417 4.107 8.58411 4.17284C8.72118 4.22222 8.84969 4.24691 8.96963 4.24691C9.14097 4.24691 9.2609 4.15638 9.32944 3.97531C9.41511 3.79424 9.48364 3.52263 9.53505 3.16049H10.1262C10.109 3.44033 10.0833 3.77778 10.0491 4.17284C10.0319 4.55144 10.0148 5.06173 9.99766 5.7037C9.99766 6.32922 9.99766 7.16049 9.99766 8.19753H9.40654C9.35514 7.40741 9.17523 6.6502 8.86682 5.92593C8.55841 5.20165 8.10436 4.60905 7.50467 4.14815C6.92212 3.68724 6.15109 3.45679 5.19159 3.45679C4.28349 3.45679 3.5296 3.72016 2.92991 4.24691C2.34735 4.77366 2.05607 5.46502 2.05607 6.32099C2.05607 6.88066 2.16745 7.36625 2.39019 7.77778C2.63006 8.1893 2.94704 8.5679 3.34112 8.91358C3.75234 9.2428 4.21495 9.56379 4.72897 9.87654C5.24299 10.1728 5.79128 10.4938 6.37383 10.8395C7.2648 11.3663 8.05296 11.893 8.73832 12.4198C9.44081 12.93 9.9891 13.4979 10.3832 14.1235C10.7944 14.749 11 15.5062 11 16.3951C11 17.4486 10.7516 18.321 10.2547 19.0123C9.75779 19.7037 9.09813 20.2222 8.2757 20.5679C7.45327 20.9136 6.54517 21.0864 5.5514 21.0864C4.6433 21.0864 3.92368 20.9877 3.39252 20.7901C2.86137 20.5926 2.40732 20.3868 2.03037 20.1728C1.82477 20.0412 1.65343 19.9506 1.51636 19.9012C1.37928 19.8519 1.25935 19.8272 1.15654 19.8272C0.985202 19.8272 0.856698 19.9177 0.771028 20.0988C0.702492 20.2798 0.642523 20.5514 0.591122 20.9136H0C0.0342679 20.5679 0.0514019 20.1646 0.0514019 19.7037C0.0685359 19.2263 0.0771029 18.6091 0.0771029 17.8519C0.0942368 17.0947 0.102804 16.1399 0.102804 14.9877H0.693925C0.745327 15.7284 0.865265 16.4362 1.05374 17.1111C1.24221 17.786 1.51636 18.3868 1.87617 18.9136C2.23598 19.4403 2.6986 19.8519 3.26402 20.1481C3.84657 20.4444 4.54907 20.5926 5.3715 20.5926C5.93692 20.5926 6.46807 20.4856 6.96495 20.2716C7.47897 20.0412 7.89875 19.6872 8.2243 19.2099C8.54984 18.716 8.71262 18.0823 8.71262 17.3086C8.71262 16.8148 8.61838 16.3621 8.42991 15.9506C8.24143 15.5391 7.96729 15.1605 7.60748 14.8148C7.24766 14.4691 6.81931 14.1317 6.32243 13.8025C5.84268 13.4733 5.30296 13.1358 4.70327 12.7901C3.89798 12.3128 3.14408 11.8272 2.44159 11.3333C1.7391 10.8395 1.17368 10.2716 0.745327 9.62963C0.334112 8.97119 0.128505 8.18107 0.128505 7.25926C0.128505 6.28807 0.351246 5.48971 0.796729 4.8642C1.25935 4.22222 1.85903 3.75309 2.59579 3.45679C3.33255 3.14403 4.12072 2.98765 4.96028 2.98765ZM4.57477 0V24H4.06075V0H4.57477ZM6.73364 0V24H6.21963V0H6.73364Z" fill="#FAF9F6"></path></svg> 