<?xml version="1.0" encoding="UTF-8"?> <svg xmlns="http://www.w3.org/2000/svg" width="23" height="23" viewBox="0 0 23 23" fill="none"><path d="M20.2546 15.3125L17.0796 14.95C16.7063 14.9062 16.3279 14.9475 15.9728 15.0709C15.6177 15.1943 15.2953 15.3966 15.0296 15.6625L12.7296 17.9625C9.18133 16.1574 6.29717 13.2733 4.49209 9.725L6.80459 7.4125C7.34209 6.875 7.60459 6.125 7.51709 5.3625L7.15459 2.2125C7.08399 1.60261 6.79142 1.04003 6.33267 0.631995C5.87392 0.223957 5.28105 -0.00100009 4.66709 3.34244e-06H2.50459C1.09209 3.34244e-06 -0.0829082 1.175 0.00459185 2.5875C0.667092 13.2625 9.20459 21.7875 19.8671 22.45C21.2796 22.5375 22.4546 21.3625 22.4546 19.95V17.7875C22.4671 16.525 21.5171 15.4625 20.2546 15.3125Z" fill="#E8E1D9"></path></svg> 