<?xml version="1.0" encoding="UTF-8"?> <svg xmlns="http://www.w3.org/2000/svg" width="30" height="30" viewBox="0 0 30 30" fill="none"><path d="M13.25 16.75L10.5625 14.0625C10.3333 13.8333 10.0417 13.7188 9.6875 13.7188C9.33333 13.7188 9.04167 13.8333 8.8125 14.0625C8.58333 14.2917 8.46875 14.5833 8.46875 14.9375C8.46875 15.2917 8.58333 15.5833 8.8125 15.8125L12.375 19.375C12.625 19.625 12.9167 19.75 13.25 19.75C13.5833 19.75 13.875 19.625 14.125 19.375L21.1875 12.3125C21.4167 12.0833 21.5313 11.7917 21.5313 11.4375C21.5313 11.0833 21.4167 10.7917 21.1875 10.5625C20.9583 10.3333 20.6667 10.2188 20.3125 10.2188C19.9583 10.2188 19.6667 10.3333 19.4375 10.5625L13.25 16.75ZM6.25 26.25C5.5625 26.25 4.97417 26.0054 4.485 25.5163C3.99583 25.0271 3.75083 24.4383 3.75 23.75V6.25C3.75 5.5625 3.995 4.97417 4.485 4.485C4.975 3.99583 5.56333 3.75083 6.25 3.75H23.75C24.4375 3.75 25.0263 3.995 25.5163 4.485C26.0063 4.975 26.2508 5.56333 26.25 6.25V23.75C26.25 24.4375 26.0054 25.0263 25.5163 25.5163C25.0271 26.0063 24.4383 26.2508 23.75 26.25H6.25Z" fill="#E8E1D9"></path></svg> 