<svg width="1600" height="960" viewBox="0 0 1600 960" fill="none" xmlns="http://www.w3.org/2000/svg" role="img" aria-labelledby="title desc">
  <title id="title">Weekly cleaning checklist for a 3 bedroom house illustration</title>
  <desc id="desc">Editorial illustration of a three bedroom house cleaning plan with checklist cards, rooms, and cleaning tools in Shynli brand colors.</desc>
  <defs>
    <linearGradient id="bg" x1="174" y1="98" x2="1412" y2="889" gradientUnits="userSpaceOnUse">
      <stop stop-color="#FFF9F3"/>
      <stop offset="1" stop-color="#F0E4D9"/>
    </linearGradient>
    <linearGradient id="rose" x1="0" y1="0" x2="1" y2="1">
      <stop stop-color="#B45A72"/>
      <stop offset="1" stop-color="#8F3B51"/>
    </linearGradient>
    <linearGradient id="taupe" x1="0" y1="0" x2="1" y2="1">
      <stop stop-color="#F8EFE7"/>
      <stop offset="1" stop-color="#E8D9CC"/>
    </linearGradient>
    <filter id="shadow" x="-20%" y="-20%" width="140%" height="140%">
      <feDropShadow dx="0" dy="18" stdDeviation="26" flood-color="#6B5248" flood-opacity=".14"/>
    </filter>
    <filter id="softShadow" x="-20%" y="-20%" width="140%" height="140%">
      <feDropShadow dx="0" dy="10" stdDeviation="16" flood-color="#6B5248" flood-opacity=".10"/>
    </filter>
  </defs>

  <rect width="1600" height="960" rx="48" fill="url(#bg)"/>
  <circle cx="1370" cy="154" r="128" fill="#F7E7DA" opacity=".8"/>
  <circle cx="232" cy="760" r="178" fill="#F8EEE6" opacity=".9"/>
  <path d="M0 790C174 736 314 724 504 774C698 826 852 852 1094 802C1280 764 1414 738 1600 780V960H0V790Z" fill="#F7EEE7"/>

  <g opacity=".8">
    <circle cx="1215" cy="106" r="10" fill="#C98B9D"/>
    <circle cx="1249" cy="142" r="7" fill="#D8CFC4"/>
    <circle cx="1180" cy="150" r="6" fill="#C98B9D"/>
    <path d="M301 134L313 158L337 170L313 182L301 206L289 182L265 170L289 158L301 134Z" fill="#D9B8C3"/>
    <path d="M1366 244L1375 262L1393 271L1375 280L1366 298L1357 280L1339 271L1357 262L1366 244Z" fill="#D9B8C3"/>
  </g>

  <g filter="url(#shadow)">
    <rect x="118" y="124" width="508" height="712" rx="34" fill="#FFFDFC"/>
    <rect x="118" y="124" width="508" height="712" rx="34" stroke="#E7D5C8" stroke-width="3"/>
    <rect x="158" y="170" width="164" height="40" rx="20" fill="#F3E6DD"/>
    <text x="186" y="197" fill="#9E445A" font-size="19" font-family="Montserrat, Arial, sans-serif" font-weight="700" letter-spacing="2.2">WEEKLY RESET</text>
    <text x="158" y="280" fill="#292320" font-size="56" font-family="'Playfair Display', Georgia, serif">3-bedroom</text>
    <text x="158" y="344" fill="#292320" font-size="56" font-family="'Playfair Display', Georgia, serif">house plan</text>
    <text x="158" y="402" fill="#675F59" font-size="24" font-family="Montserrat, Arial, sans-serif">A practical weekly cleaning flow</text>
    <text x="158" y="434" fill="#675F59" font-size="24" font-family="Montserrat, Arial, sans-serif">for busy households</text>

    <g filter="url(#softShadow)">
      <rect x="158" y="492" width="428" height="280" rx="28" fill="url(#rose)"/>
      <rect x="190" y="532" width="168" height="196" rx="20" fill="#FFF7F3" fill-opacity=".96"/>
      <rect x="374" y="532" width="180" height="88" rx="18" fill="#F5E4DB"/>
      <rect x="374" y="640" width="180" height="88" rx="18" fill="#F5E4DB"/>

      <text x="220" y="578" fill="#9E445A" font-size="18" font-family="Montserrat, Arial, sans-serif" font-weight="700" letter-spacing="1.8">CHECKLIST</text>
      <g fill="#5A524C" font-size="20" font-family="Montserrat, Arial, sans-serif">
        <text x="222" y="622">Bedrooms reset</text>
        <text x="222" y="662">Bathrooms cleaned</text>
        <text x="222" y="702">Kitchen + living</text>
      </g>
      <g fill="#9E445A">
        <circle cx="204" cy="616" r="10"/><path d="M199 616L203 620L210 611" stroke="white" stroke-width="3.2" stroke-linecap="round" stroke-linejoin="round"/>
        <circle cx="204" cy="656" r="10"/><path d="M199 656L203 660L210 651" stroke="white" stroke-width="3.2" stroke-linecap="round" stroke-linejoin="round"/>
        <circle cx="204" cy="696" r="10"/><path d="M199 696L203 700L210 691" stroke="white" stroke-width="3.2" stroke-linecap="round" stroke-linejoin="round"/>
      </g>

      <text x="402" y="573" fill="#8F3B51" font-size="16" font-family="Montserrat, Arial, sans-serif" font-weight="700" letter-spacing="1.8">BEDROOMS</text>
      <text x="402" y="691" fill="#8F3B51" font-size="16" font-family="Montserrat, Arial, sans-serif" font-weight="700" letter-spacing="1.8">FLOORS</text>
      <g fill="#554F49" font-size="18" font-family="Montserrat, Arial, sans-serif">
        <text x="402" y="602">Linens</text>
        <text x="402" y="626">Dust + tidy</text>
        <text x="402" y="720">Vacuum</text>
        <text x="402" y="744">Mop + final pass</text>
      </g>
    </g>
  </g>

  <g filter="url(#shadow)">
    <g transform="translate(665 132)">
      <path d="M64 150L338 34L684 164V546C684 563 671 576 654 576H90C73 576 60 563 60 546L64 150Z" fill="#FFFDFC"/>
      <path d="M338 34L684 164L652 188L306 60L338 34Z" fill="#C98B9D"/>
      <path d="M64 150L338 34L306 60L32 176L64 150Z" fill="#B17185"/>
      <path d="M32 176L306 60L652 188V580H60C44 580 32 568 32 552V176Z" fill="#FFFCFA"/>
      <path d="M340 90V580" stroke="#E6D6CA" stroke-width="4"/>
      <path d="M32 366H652" stroke="#E6D6CA" stroke-width="4"/>
      <path d="M190 176V366" stroke="#E6D6CA" stroke-width="4"/>
      <path d="M492 176V366" stroke="#E6D6CA" stroke-width="4"/>
      <path d="M222 366V580" stroke="#E6D6CA" stroke-width="4"/>
      <path d="M474 366V580" stroke="#E6D6CA" stroke-width="4"/>

      <rect x="74" y="195" width="96" height="120" rx="18" fill="#F7EDE6"/>
      <rect x="214" y="200" width="106" height="110" rx="18" fill="#F7EDE6"/>
      <rect x="372" y="194" width="98" height="122" rx="18" fill="#F7EDE6"/>
      <rect x="514" y="198" width="104" height="118" rx="18" fill="#F7EDE6"/>
      <rect x="74" y="402" width="128" height="130" rx="20" fill="#F7EDE6"/>
      <rect x="244" y="402" width="206" height="130" rx="20" fill="#F7EDE6"/>
      <rect x="494" y="402" width="124" height="130" rx="20" fill="#F7EDE6"/>

      <g fill="#2E2724" font-family="'Playfair Display', Georgia, serif" font-size="26">
        <text x="87" y="230">Bedroom 1</text>
        <text x="229" y="235">Bedroom 2</text>
        <text x="386" y="230">Bedroom 3</text>
        <text x="533" y="234">Bath</text>
        <text x="88" y="438">Bath</text>
        <text x="264" y="438">Kitchen + Living</text>
        <text x="518" y="438">Floors</text>
      </g>

      <g fill="#675E58" font-family="Montserrat, Arial, sans-serif" font-size="16">
        <text x="88" y="262">Linens</text>
        <text x="88" y="286">Dust</text>
        <text x="88" y="310">Vacuum</text>
        <text x="230" y="267">Reset</text>
        <text x="230" y="291">Surfaces</text>
        <text x="230" y="315">Floor tidy</text>
        <text x="388" y="262">Tidy</text>
        <text x="388" y="286">Dust</text>
        <text x="388" y="310">Vacuum</text>
        <text x="532" y="266">Mirror</text>
        <text x="532" y="290">Toilet</text>
        <text x="532" y="314">Mop</text>
        <text x="90" y="470">Sink</text>
        <text x="90" y="494">Counter</text>
        <text x="90" y="518">Fresh towels</text>
        <text x="266" y="470">Counters</text>
        <text x="266" y="494">Dusting</text>
        <text x="266" y="518">Entry reset</text>
        <text x="520" y="470">Vacuum</text>
        <text x="520" y="494">Mop</text>
        <text x="520" y="518">Final pass</text>
      </g>

      <g fill="#9E445A">
        <circle cx="78" cy="256" r="7"/><circle cx="78" cy="280" r="7"/><circle cx="78" cy="304" r="7"/>
        <circle cx="220" cy="261" r="7"/><circle cx="220" cy="285" r="7"/><circle cx="220" cy="309" r="7"/>
        <circle cx="378" cy="256" r="7"/><circle cx="378" cy="280" r="7"/><circle cx="378" cy="304" r="7"/>
        <circle cx="522" cy="260" r="7"/><circle cx="522" cy="284" r="7"/><circle cx="522" cy="308" r="7"/>
        <circle cx="80" cy="464" r="7"/><circle cx="80" cy="488" r="7"/><circle cx="80" cy="512" r="7"/>
        <circle cx="256" cy="464" r="7"/><circle cx="256" cy="488" r="7"/><circle cx="256" cy="512" r="7"/>
        <circle cx="510" cy="464" r="7"/><circle cx="510" cy="488" r="7"/><circle cx="510" cy="512" r="7"/>
      </g>
    </g>
  </g>

  <g filter="url(#softShadow)">
    <rect x="1236" y="642" width="172" height="158" rx="28" fill="#FFFDFC"/>
    <path d="M1268 698C1268 677 1285 660 1306 660H1334C1355 660 1372 677 1372 698V702C1372 723 1355 740 1334 740H1306C1285 740 1268 723 1268 702V698Z" fill="#F2E2D8"/>
    <path d="M1284 740H1356V760C1356 782 1338 800 1316 800H1324C1302 800 1284 782 1284 760V740Z" fill="url(#rose)"/>
    <path d="M1374 658L1416 628L1436 656L1392 684L1374 658Z" fill="#E8D9CC"/>
    <path d="M1416 628L1438 618L1468 652L1456 678L1436 656L1416 628Z" fill="#F4D36A"/>
    <path d="M1258 730L1230 700L1218 710L1244 740L1258 730Z" fill="#D8CFC4"/>
    <circle cx="1296" cy="698" r="18" fill="#FFFDFB"/>
    <circle cx="1344" cy="698" r="18" fill="#FFFDFB"/>
    <circle cx="1296" cy="698" r="6" fill="#9E445A"/>
    <circle cx="1344" cy="698" r="6" fill="#9E445A"/>
  </g>

  <g opacity=".9">
    <path d="M1098 742C1114 720 1140 714 1160 724C1180 734 1184 756 1176 774C1166 796 1140 804 1116 798L1098 742Z" fill="#D0E2D3"/>
    <path d="M1114 800H1138V860H1114V800Z" fill="#8D6D57"/>
    <path d="M1162 760C1182 742 1206 740 1224 752C1242 764 1242 790 1228 808C1212 828 1184 832 1160 824L1162 760Z" fill="#D7E8D7"/>
    <path d="M1182 826H1206V860H1182V826Z" fill="#8D6D57"/>
  </g>
</svg>
